<svg id="visual" viewBox="0 0 210 297" width="210" height="297" xmlns="http://www.w3.org/2000/svg" xmlns:xlink="http://www.w3.org/1999/xlink" version="1.1"><g transform="translate(101.03540679080567 136.87928674208365)"><path d="M52 -57.5C67.6 -48.9 80.6 -32.7 81.7 -15.9C82.9 0.8 72.2 18.2 62.6 37.4C53 56.6 44.4 77.6 29.3 85.2C14.1 92.7 -7.6 86.8 -21.2 74.7C-34.8 62.6 -40.1 44.4 -50.3 28.3C-60.5 12.2 -75.6 -1.9 -73.7 -13C-71.8 -24.2 -52.9 -32.4 -37.8 -41.1C-22.7 -49.7 -11.4 -58.9 3.4 -63C18.2 -67 36.4 -66.1 52 -57.5" fill="#1a1a1a"></path></g></svg>