<svg id="visual" viewBox="0 0 960 150" width="960" height="150" xmlns="http://www.w3.org/2000/svg" xmlns:xlink="http://www.w3.org/1999/xlink" version="1.1">
	<path d="M0 75L22.8 71.8C45.7 68.7 91.3 62.3 137 60.2C182.7 58 228.3 60 274 61.7C319.7 63.3 365.3 64.7 411.2 68.2C457 71.7 503 77.3 548.8 77.8C594.7 78.3 640.3 73.7 686 71.5C731.7 69.3 777.3 69.7 823 72.2C868.7 74.7 914.3 79.3 937.2 81.7L960 84L960 151L937.2 151C914.3 151 868.7 151 823 151C777.3 151 731.7 151 686 151C640.3 151 594.7 151 548.8 151C503 151 457 151 411.2 151C365.3 151 319.7 151 274 151C228.3 151 182.7 151 137 151C91.3 151 45.7 151 22.8 151L0 151Z" fill="#f7770f"></path>
	<path d="M0 72L22.8 72.8C45.7 73.7 91.3 75.3 137 77.5C182.7 79.7 228.3 82.3 274 81.8C319.7 81.3 365.3 77.7 411.2 74C457 70.3 503 66.7 548.8 65C594.7 63.3 640.3 63.7 686 66.7C731.7 69.7 777.3 75.3 823 76.8C868.7 78.3 914.3 75.7 937.2 74.3L960 73L960 151L937.2 151C914.3 151 868.7 151 823 151C777.3 151 731.7 151 686 151C640.3 151 594.7 151 548.8 151C503 151 457 151 411.2 151C365.3 151 319.7 151 274 151C228.3 151 182.7 151 137 151C91.3 151 45.7 151 22.8 151L0 151Z" fill="#ea503e"></path>
	<path d="M0 87L22.8 89.2C45.7 91.3 91.3 95.7 137 94.7C182.7 93.7 228.3 87.3 274 83.3C319.7 79.3 365.3 77.7 411.2 76.3C457 75 503 74 548.8 77C594.7 80 640.3 87 686 89.2C731.7 91.3 777.3 88.7 823 89C868.7 89.3 914.3 92.7 937.2 94.3L960 96L960 151L937.2 151C914.3 151 868.7 151 823 151C777.3 151 731.7 151 686 151C640.3 151 594.7 151 548.8 151C503 151 457 151 411.2 151C365.3 151 319.7 151 274 151C228.3 151 182.7 151 137 151C91.3 151 45.7 151 22.8 151L0 151Z" fill="#cc3557"></path>
	<path d="M0 108L22.8 105.7C45.7 103.3 91.3 98.7 137 94.5C182.7 90.3 228.3 86.7 274 85.8C319.7 85 365.3 87 411.2 91.3C457 95.7 503 102.3 548.8 101.5C594.7 100.7 640.3 92.3 686 91.2C731.7 90 777.3 96 823 97.8C868.7 99.7 914.3 97.3 937.2 96.2L960 95L960 151L937.2 151C914.3 151 868.7 151 823 151C777.3 151 731.7 151 686 151C640.3 151 594.7 151 548.8 151C503 151 457 151 411.2 151C365.3 151 319.7 151 274 151C228.3 151 182.7 151 137 151C91.3 151 45.7 151 22.8 151L0 151Z" fill="#a22c65"></path>
	<path d="M0 114L22.8 113.3C45.7 112.7 91.3 111.3 137 111.2C182.7 111 228.3 112 274 110.3C319.7 108.7 365.3 104.3 411.2 104.8C457 105.3 503 110.7 548.8 113C594.7 115.3 640.3 114.7 686 113.3C731.7 112 777.3 110 823 110.3C868.7 110.7 914.3 113.3 937.2 114.7L960 116L960 151L937.2 151C914.3 151 868.7 151 823 151C777.3 151 731.7 151 686 151C640.3 151 594.7 151 548.8 151C503 151 457 151 411.2 151C365.3 151 319.7 151 274 151C228.3 151 182.7 151 137 151C91.3 151 45.7 151 22.8 151L0 151Z" fill="#712c66"></path>
	<path d="M0 123L22.8 121.2C45.7 119.3 91.3 115.7 137 113.5C182.7 111.3 228.3 110.7 274 111.2C319.7 111.7 365.3 113.3 411.2 114.7C457 116 503 117 548.8 116.7C594.7 116.3 640.3 114.7 686 115.7C731.7 116.7 777.3 120.3 823 120.2C868.7 120 914.3 116 937.2 114L960 112L960 151L937.2 151C914.3 151 868.7 151 823 151C777.3 151 731.7 151 686 151C640.3 151 594.7 151 548.8 151C503 151 457 151 411.2 151C365.3 151 319.7 151 274 151C228.3 151 182.7 151 137 151C91.3 151 45.7 151 22.8 151L0 151Z" fill="#412958"></path>
	<path d="M0 119L22.8 119.5C45.7 120 91.3 121 137 123.2C182.7 125.3 228.3 128.7 274 128.2C319.7 127.7 365.3 123.3 411.2 122.3C457 121.3 503 123.7 548.8 124.3C594.7 125 640.3 124 686 123.5C731.7 123 777.3 123 823 123.3C868.7 123.7 914.3 124.3 937.2 124.7L960 125L960 151L937.2 151C914.3 151 868.7 151 823 151C777.3 151 731.7 151 686 151C640.3 151 594.7 151 548.8 151C503 151 457 151 411.2 151C365.3 151 319.7 151 274 151C228.3 151 182.7 151 137 151C91.3 151 45.7 151 22.8 151L0 151Z" fill="#192040"></path>
	<path d="M0 134L22.8 135.2C45.7 136.3 91.3 138.7 137 138.7C182.7 138.7 228.3 136.3 274 134.8C319.7 133.3 365.3 132.7 411.2 132.3C457 132 503 132 548.8 133.2C594.7 134.3 640.3 136.7 686 138.2C731.7 139.7 777.3 140.3 823 139.3C868.7 138.3 914.3 135.7 937.2 134.3L960 133L960 151L937.2 151C914.3 151 868.7 151 823 151C777.3 151 731.7 151 686 151C640.3 151 594.7 151 548.8 151C503 151 457 151 411.2 151C365.3 151 319.7 151 274 151C228.3 151 182.7 151 137 151C91.3 151 45.7 151 22.8 151L0 151Z" fill="#001122"></path>
</svg>