<svg id="visual" viewBox="0 0 960 100" width="960" height="100" xmlns="http://www.w3.org/2000/svg" xmlns:xlink="http://www.w3.org/1999/xlink" version="1.1"><path d="M0 43L22.8 43.7C45.7 44.3 91.3 45.7 137 47.5C182.7 49.3 228.3 51.7 274 53.5C319.7 55.3 365.3 56.7 411.2 58.3C457 60 503 62 548.8 59.7C594.7 57.3 640.3 50.7 686 50.3C731.7 50 777.3 56 823 58.8C868.7 61.7 914.3 61.3 937.2 61.2L960 61L960 0L937.2 0C914.3 0 868.7 0 823 0C777.3 0 731.7 0 686 0C640.3 0 594.7 0 548.8 0C503 0 457 0 411.2 0C365.3 0 319.7 0 274 0C228.3 0 182.7 0 137 0C91.3 0 45.7 0 22.8 0L0 0Z" fill="#f7770f"></path><path d="M0 57L22.8 56.7C45.7 56.3 91.3 55.7 137 53.5C182.7 51.3 228.3 47.7 274 44.7C319.7 41.7 365.3 39.3 411.2 40.8C457 42.3 503 47.7 548.8 47.8C594.7 48 640.3 43 686 42C731.7 41 777.3 44 823 47.2C868.7 50.3 914.3 53.7 937.2 55.3L960 57L960 0L937.2 0C914.3 0 868.7 0 823 0C777.3 0 731.7 0 686 0C640.3 0 594.7 0 548.8 0C503 0 457 0 411.2 0C365.3 0 319.7 0 274 0C228.3 0 182.7 0 137 0C91.3 0 45.7 0 22.8 0L0 0Z" fill="#e9503f"></path><path d="M0 36L22.8 37C45.7 38 91.3 40 137 42.3C182.7 44.7 228.3 47.3 274 47.7C319.7 48 365.3 46 411.2 44.2C457 42.3 503 40.7 548.8 41C594.7 41.3 640.3 43.7 686 42.8C731.7 42 777.3 38 823 38.3C868.7 38.7 914.3 43.3 937.2 45.7L960 48L960 0L937.2 0C914.3 0 868.7 0 823 0C777.3 0 731.7 0 686 0C640.3 0 594.7 0 548.8 0C503 0 457 0 411.2 0C365.3 0 319.7 0 274 0C228.3 0 182.7 0 137 0C91.3 0 45.7 0 22.8 0L0 0Z" fill="#ca3558"></path><path d="M0 33L22.8 34.2C45.7 35.3 91.3 37.7 137 38.7C182.7 39.7 228.3 39.3 274 38.7C319.7 38 365.3 37 411.2 35.7C457 34.3 503 32.7 548.8 32.8C594.7 33 640.3 35 686 34.3C731.7 33.7 777.3 30.3 823 31.2C868.7 32 914.3 37 937.2 39.5L960 42L960 0L937.2 0C914.3 0 868.7 0 823 0C777.3 0 731.7 0 686 0C640.3 0 594.7 0 548.8 0C503 0 457 0 411.2 0C365.3 0 319.7 0 274 0C228.3 0 182.7 0 137 0C91.3 0 45.7 0 22.8 0L0 0Z" fill="#9f2d66"></path><path d="M0 23L22.8 23.8C45.7 24.7 91.3 26.3 137 27.5C182.7 28.7 228.3 29.3 274 30.5C319.7 31.7 365.3 33.3 411.2 32.7C457 32 503 29 548.8 28.2C594.7 27.3 640.3 28.7 686 29C731.7 29.3 777.3 28.7 823 28.3C868.7 28 914.3 28 937.2 28L960 28L960 0L937.2 0C914.3 0 868.7 0 823 0C777.3 0 731.7 0 686 0C640.3 0 594.7 0 548.8 0C503 0 457 0 411.2 0C365.3 0 319.7 0 274 0C228.3 0 182.7 0 137 0C91.3 0 45.7 0 22.8 0L0 0Z" fill="#6d2d65"></path><path d="M0 18L22.8 19.2C45.7 20.3 91.3 22.7 137 23C182.7 23.3 228.3 21.7 274 21.5C319.7 21.3 365.3 22.7 411.2 22.8C457 23 503 22 548.8 21.5C594.7 21 640.3 21 686 20.8C731.7 20.7 777.3 20.3 823 20.5C868.7 20.7 914.3 21.3 937.2 21.7L960 22L960 0L937.2 0C914.3 0 868.7 0 823 0C777.3 0 731.7 0 686 0C640.3 0 594.7 0 548.8 0C503 0 457 0 411.2 0C365.3 0 319.7 0 274 0C228.3 0 182.7 0 137 0C91.3 0 45.7 0 22.8 0L0 0Z" fill="#3d2955"></path><path d="M0 17L22.8 16C45.7 15 91.3 13 137 13.5C182.7 14 228.3 17 274 17C319.7 17 365.3 14 411.2 12.5C457 11 503 11 548.8 11.5C594.7 12 640.3 13 686 13.3C731.7 13.7 777.3 13.3 823 13.5C868.7 13.7 914.3 14.3 937.2 14.7L960 15L960 0L937.2 0C914.3 0 868.7 0 823 0C777.3 0 731.7 0 686 0C640.3 0 594.7 0 548.8 0C503 0 457 0 411.2 0C365.3 0 319.7 0 274 0C228.3 0 182.7 0 137 0C91.3 0 45.7 0 22.8 0L0 0Z" fill="#171e3b"></path><path d="M0 4L22.8 5.3C45.7 6.7 91.3 9.3 137 10.7C182.7 12 228.3 12 274 11.3C319.7 10.7 365.3 9.3 411.2 9.2C457 9 503 10 548.8 10C594.7 10 640.3 9 686 8.7C731.7 8.3 777.3 8.7 823 8.2C868.7 7.7 914.3 6.3 937.2 5.7L960 5L960 0L937.2 0C914.3 0 868.7 0 823 0C777.3 0 731.7 0 686 0C640.3 0 594.7 0 548.8 0C503 0 457 0 411.2 0C365.3 0 319.7 0 274 0C228.3 0 182.7 0 137 0C91.3 0 45.7 0 22.8 0L0 0Z" fill="#000e1c"></path></svg>