<svg xmlns="http://www.w3.org/2000/svg" xml:space="preserve" width="237.025" height="257.653" viewBox="0 0 62.713 68.171"><g style="display:inline"><path d="M101.786 182.59c-.385-.068-1.209-.627-1.49-1.011a6.019 6.019 0 0 1-.542-1.033.935.935 0 0 0-.086-.183c-.017-.02-.161.008-.321.06-.267.088-.39.097-1.46.113l-1.168.018-.256-.13a2.947 2.947 0 0 0-.56-.198c-.234-.053-.334-.1-.444-.21-.189-.189-.315-.543-.352-.988l-.03-.365-.403-.056c-.686-.095-1.76-.044-2.838.133-2.135.351-3.54.737-4.845 1.33-.425.193-.806.214-1.138.063-.325-.149-1.222-1.07-1.634-1.677-.467-.69-1.236-2.55-1.605-3.879-.693-2.502-.585-5.53.224-6.316.263-.255.363-.276.677-.143.648.276 1.177.694 1.632 1.292.868 1.14 1.447 2.29 1.663 3.304.048.221.093.428.101.458.01.032.19-.096.45-.318 1.298-1.113 2.61-1.8 3.995-2.092.367-.077.6-.098 1.138-.099.373 0 .801.014.953.032l.275.034.224-.296c.296-.39.952-1.045 1.368-1.368.184-.142.334-.267.334-.278 0-.01-.265-.293-.59-.628-.622-.642-1.16-1.252-1.508-1.71l-.21-.275-.028.275c-.078.763-.123.965-.218.99a.838.838 0 0 1-.118.026c-.065 0-.074-.323-.038-1.34.022-.6.03-1.1.02-1.11-.015-.015-.582.09-.787.148-.114.031-.431 1.084-.61 2.027-.04.21-.088.397-.106.417-.017.02-.071.024-.12.008-.207-.066-.221-.778-.034-1.705.053-.262.092-.477.088-.477-.005 0-.157.064-.34.142-.302.129-.334.154-.362.285-.017.08-.138.773-.268 1.542-.231 1.363-.438 2.485-.463 2.51-.007.007-.062 0-.122-.015l-.11-.027.01-.959.008-.959-.36-.177a4.922 4.922 0 0 0-.39-.18c-.044-.004-.216.583-.393 1.342-.115.49-.179.686-.243.742-.153.133-.18.034-.18-.66.002-.564.017-.703.121-1.121.066-.263.11-.502.1-.532-.018-.045-.46-.197-.575-.197-.09 0-.336.741-.557 1.678-.124.529-.137.558-.245.579-.063.012-.123.012-.135 0-.04-.039-.011-.88.041-1.22.03-.186.115-.529.191-.762.077-.233.134-.43.127-.436-.024-.027-.468-.134-.557-.135-.05 0-.12.027-.154.06-.033.035-.129.341-.212.682-.132.54-.36 1.163-.428 1.163-.012 0-.053-.06-.091-.135-.058-.112-.065-.212-.042-.603.114-1.889.453-3.207 1.476-5.743 1.695-4.201 1.94-4.722 2.88-6.135.707-1.061.998-1.385 1.42-1.58.194-.09.203-.102.145-.179-.415-.553-.567-1.515-.342-2.157.057-.162.117-.325.133-.36.026-.058-.025-.064-.393-.049-.367.015-.447.005-.61-.074-.255-.124-.343-.299-.256-.51.197-.475.657-1.015 1.15-1.35.146-.099.447-.268.669-.375l.403-.195-.265-.141a1.892 1.892 0 0 1-.693-.611c-.116-.181-.232-.55-.232-.74 0-.24.256-.341 1.016-.401.696-.055 1.174-.139 1.588-.277.321-.107.91-.378.91-.418 0-.01-.138-.1-.307-.198-1.075-.625-3.091-2.007-3.842-2.633-.596-.497-1.57-1.478-2.004-2.018a14.23 14.23 0 0 1-1.42-2.215l-.302-.614-.455-.109a25.78 25.78 0 0 0-4.963-.703c-.8-.04-.969-.059-1.058-.123-.058-.042-.112-.106-.119-.143-.02-.103.273-.13 1.389-.128 1.438.002 2.657.15 4.153.505.359.085.703.163.765.174l.112.02-.142-.448c-.235-.742-.364-1.392-.394-1.993l-.028-.549-.23.295c-.532.679-.842.951-1.085.951-.187 0-.404-.19-.518-.455-.103-.24-.244-.953-.286-1.444l-.03-.355-.238-.105c-1.161-.514-2.804-1.072-4.658-1.581-.591-.162-1.124-.319-1.184-.347-.118-.057-.253-.262-.205-.31.017-.017.169-.03.338-.028.684.006 3.351.784 5.206 1.517.436.173.802.314.815.314.012 0 .022-.026.022-.059 0-.143.231-.84.384-1.156.092-.191.26-.47.372-.619.113-.15.217-.29.232-.314.018-.028-.234-.041-.745-.037-.645.004-.808-.007-.991-.072-.12-.042-.242-.103-.27-.137-.082-.1-.008-.347.162-.534.166-.185 1.507-1.098 2.23-1.52.243-.142.528-.334.634-.427.277-.243.613-.773.993-1.566.366-.764.66-1.283 1.008-1.784l.23-.33-.313-.332c-.928-.986-1.566-2.365-1.857-4.012-.132-.741-.143-2.293-.022-2.849.197-.898.667-1.815 1.342-2.617.402-.478.916-.803 1.703-1.078.379-.132.41-.136 1.089-.136.633 0 .737.011 1.116.117.886.247 2.04.804 3.837 1.852 1.203.702 2.643 1.568 3.353 2.018l.497.314.365-.215c1.446-.854 3.307-1.512 5.329-1.883l.59-.108.178.174c.338.332.464.66.621 1.625l.097.593.464.032c2.133.149 3.67.422 5.117.911.393.133.468.147.499.093.382-.652.567-.908.903-1.249.299-.303.45-.42.703-.545l.322-.16.268.136c.404.204 1.456.924 1.847 1.263.456.397.978 1.025 1.5 1.805.235.35.441.64.46.648.018.007.269-.148.557-.344 1.815-1.236 3.373-1.807 4.935-1.807.638 0 .935.058 1.341.26.598.296 1.046.71 1.468 1.357a8.27 8.27 0 0 1 1.266 3.612c.079.726.104 2.422.047 3.17-.075.976-.34 2.48-.644 3.664-.47 1.82-1.322 3.777-2.473 5.675-.482.796-.691 1.237-.75 1.582-.044.254-.04.308.05.587.181.566.497 1.106 1.025 1.754.136.166.267.353.29.415.072.188.052.395-.047.494-.08.08-.12.087-.37.063-.304-.029-.472-.075-1.011-.276a3.786 3.786 0 0 0-.35-.12c0 .005.037.105.081.221.134.354.187.835.156 1.428-.056 1.084-.365 1.76-.95 2.079-.194.105-.232.112-.385.07-.238-.063-.43-.28-.672-.756-.25-.492-.33-.703-.404-1.064l-.057-.275-.252.53c-.377.788-.866 1.56-1.253 1.974-.121.13-.127.226-.014.226.086 0 1.54.404 2.311.641 1.316.406 2.205.755 3.25 1.274.6.299.603.302.603.445 0 .141-.004.144-.138.116-.258-.054-.645-.196-1.323-.484-1.012-.43-3.082-1.098-4.654-1.504l-.59-.152-.214.207c-.61.588-1.457 1.145-2.573 1.693-.459.226-.834.42-.834.431 0 .012.186.155.411.318.717.518 1.243.959 1.776 1.49.442.44.519.536.519.648 0 .118-.011.13-.096.103-.196-.06-.457-.244-.93-.65-.515-.445-1.772-1.46-2.024-1.634l-.15-.105-.323.125c-.825.317-2.129.674-3.166.865-1.368.252-2.52.342-3.958.31-1.513-.035-2.341-.14-4.138-.524-.113-.024-.116-.02-.09.118.06.317.356 1.142.545 1.52.11.22.323.594.47.83.169.269.27.476.27.551 0 .26-.249.484-.724.655-.155.055-.286.11-.292.122-.006.011.013.191.043.4.066.47.033 1.423-.063 1.78-.173.64-.29.87-.672 1.308l-.206.236.068.498c.11.798.365 1.636.65 2.128.06.104.247.333.414.508.168.174.386.441.487.592.298.451.616.826.838.99.16.117.434.227 1.164.467 1.076.354 1.394.504 1.874.89.716.573 1.308 1.271 1.85 2.183 1.203 2.025 1.757 3.407 1.954 4.877.207 1.55.195 2.903-.036 4.108-.053.274-.082.498-.065.498s.267-.093.554-.207c1.573-.622 3.035-1.01 4.609-1.22.795-.106 2.711-.105 3.471.002 1.579.223 2.82.52 4.543 1.09.692.227 1.42.407 1.955.482.58.082.6.366.043.614-.207.092-.21.095-.106.138.957.397 1.578.813 3.121 2.086.074.062.11.143.127.283.022.196.021.197-.121.223-.196.035-.298.035-1.074 0-.722-.033-2.083.011-4.551.149-4.997.277-5.916.31-7.077.256-1.416-.067-3.218-.318-4.903-.683-1.154-.25-1.436-.3-1.525-.271-.045.014-.231.22-.415.457-.815 1.053-1.855 1.842-2.929 2.221-.636.224-1.005.283-1.778.283-.62 0-.75-.013-1.157-.115a9.24 9.24 0 0 0-.49-.116c-.017 0-.12.131-.23.291-.565.827-1.42 1.407-2.06 1.396a3.61 3.61 0 0 1-.38-.024zm4.953-1.965c.366-.052 1.19-.312 1.527-.481 1.281-.645 2.386-1.84 2.856-3.09.22-.582.49-1.81.596-2.71.094-.793.094-2.508 0-3.196-.192-1.412-.436-2.172-1.146-3.577-.825-1.632-1.321-2.39-2.004-3.063-.675-.665-.985-.85-2.045-1.214a10.082 10.082 0 0 1-1.052-.424 3.483 3.483 0 0 0-.367-.176c-.005.005.01.17.034.369.075.63-.032 2.548-.223 4.019a28.09 28.09 0 0 1-.379 2.18 4.548 4.548 0 0 0-.083.45c0 .058.283.255.64.446.014.007.102-.043.196-.112.208-.153.597-.302 1.042-.4a3.072 3.072 0 0 1 1.577.092c.715.258 1.405.742 1.786 1.252.247.33.509.816.464.86-.077.077-.285-.07-.718-.507-.648-.653-1.246-1.037-1.863-1.195-.518-.133-1.345-.019-1.903.263l-.197.1.144.266c.184.34.376.933.442 1.366.07.453.069 1.326 0 2.19-.07.856-.062.903.314 1.76.359.82.405 1.002.436 1.699.045 1.005-.207 2.024-.664 2.688-.07.103-.129.196-.129.206 0 .024.308-.002.72-.06zm-4.29-.689c.288-.134.51-.34.768-.715.525-.76.833-1.968.688-2.703-.13-.663-.551-1.083-1.044-1.042-.26.021-.545.212-.978.657-.316.324-.482.645-.63 1.217-.316 1.23-.063 2.386.577 2.641.176.07.39.051.618-.055zm-6.657-.874c.192-.732.508-.993 1.664-1.375.622-.206.708-.248.878-.432.236-.254.387-.747.632-2.07.134-.72.407-2.275.407-2.317 0-.035.417-.124.698-.149l.294-.025.278-.498c.382-.684.738-1.177 1.162-1.606.398-.402.68-.607 1.061-.766.243-.103.814-.242.99-.242.104 0 .102.008.256-.889.25-1.453.384-2.643.471-4.17.086-1.499-.05-2.314-.51-3.042-.368-.583-.815-.84-1.457-.84-.548 0-.852.198-1.188.775-.262.452-.57.712-.506.43.127-.562.297-.927.566-1.211a1.672 1.672 0 0 1 1.387-.515c.123.015.224.02.224.01s-.058-.158-.128-.328a6.243 6.243 0 0 1-.39-1.51l-.054-.434-.635.385c-1.902 1.152-3.821 1.814-5.772 1.992a14.6 14.6 0 0 0-.545.055c-.04.024-.448 2.247-.483 2.622-.024.258-.046 1.216-.05 2.13-.008 1.64-.009 1.66-.092 1.635-.134-.04-.2-.109-.28-.29-.094-.215-.227-.748-.295-1.18l-.053-.334-.406.03a2.968 2.968 0 0 0-.424.048c-.04.04.13.683.246.93.141.302.429.645 1.37 1.635.75.79 1.05 1.035 1.789 1.463.28.161.57.332.645.378l.137.084-.106.1-.106.1-.222-.08a10.94 10.94 0 0 1-.7-.304c-.263-.124-.503-.225-.532-.225-.085 0-.878.725-1.213 1.109-.624.715-1.038 1.485-1.187 2.206-.057.274-.08.567-.081.988-.001 1.133.25 1.978.806 2.702.216.281.407.643.363.687-.079.079-.682-.433-.925-.784-.207-.3-.484-.936-.576-1.32-.264-1.1-.214-2.139.145-3.058.08-.203.144-.382.144-.398 0-.05-1.53.023-1.926.092-1.08.19-2.39.806-3.46 1.626-.439.338-1.091.922-1.091.98 0 .07.063.04.53-.257.76-.483.68-.459.876-.27.37.358.828 1.126 1.03 1.728.307.919.372 2.051.168 2.958-.087.39-.1.51-.062.582.033.062.076.083.14.07a61.16 61.16 0 0 1 2.454-.475c.963-.14 2.015-.156 2.846-.042l.213.029.156-.236c.244-.367.623-.732.817-.786l.82-.227.654-.18.097-.36c.483-1.77.83-3.577 1.454-7.576.305-1.949.684-4.126.768-4.408.054-.182.225-.41.272-.364.03.03 0 .356-.108 1.153-.022.163-.089.677-.148 1.143-.06.465-.252 1.837-.428 3.048-.566 3.897-.934 5.807-1.403 7.281-.143.449-.129.438-.949.679-.89.261-1.186.45-1.432.912-.151.283-.212.678-.153.993.038.2.077.154.168-.195zm-9.892-.32c.194-.266.27-1.049.163-1.667-.088-.507-.404-1.458-.6-1.81-.192-.343-.589-.767-.852-.91-.253-.138-.58-.215-.764-.18-.173.032-.404.23-.541.465l-.105.179.187.546c.227.661.37 1.025.685 1.738.473 1.07.906 1.668 1.26 1.74.226.046.494-.002.567-.101zm-2.75-5.221c-.072-.602-.07-2.75.003-3.408.055-.49.173-.974.32-1.304.068-.157.068-.16-.027-.196-.275-.103-.278-.102-.363.067-.12.24-.247.63-.333 1.031-.063.291-.077.55-.077 1.395 0 .596.024 1.226.055 1.482.064.512.239 1.416.309 1.593l.047.121.06-.167c.05-.142.051-.238.006-.614zm6.825-6.09c0-.019.029-.252.064-.519.298-2.263.644-3.296 2.357-7.024a1468.27 1468.27 0 0 0 1.29-2.813c.105-.232.251-.513.325-.625.128-.196.14-.203.337-.203h.204l-.076-.132c-.161-.277-.589-.574-1.062-.737-.357-.124-1.378-.359-1.557-.359-.17 0-.428.186-.652.47-.836 1.056-1.81 2.778-2.335 4.123a99.431 99.431 0 0 1-.703 1.715c-.6 1.43-.963 2.354-1.198 3.048-.186.55-.555 1.947-.526 1.994.01.015.155.04.325.056.803.077 2.077.48 2.932.926.23.12.275.133.275.08zm1.32-2.48c.646-.286 1.804-.512 2.763-.54.53-.015.49.031.49-.56 0-.825.072-1.414.296-2.451.116-.535.211-1.006.211-1.046 0-.065-.092-.075-.952-.101-.524-.016-1.043-.018-1.153-.003l-.202.026-.145.345c-.08.19-.349.812-.598 1.383-.568 1.303-.818 1.96-.949 2.5-.096.396-.102.548-.023.548.018 0 .136-.046.262-.102zm5.309-5.362c.487-.072.994-.157 1.127-.191.507-.13 1.474-.46 1.993-.683.528-.226 1.72-.859 2.443-1.296.828-.5 1.216-1.17 1.296-2.23.028-.378-.033-1.03-.122-1.3-.045-.136-.075-.162-.221-.192a5.81 5.81 0 0 1-.498-.143l-.328-.108-.392.369c-1.258 1.186-2.07 1.748-3.156 2.183-1.214.486-2.264.677-3.717.678h-.64l-.214.473c-.118.26-.406.902-.641 1.426-.235.524-.445.986-.469 1.026a.352.352 0 0 0-.042.096c0 .012.607.021 1.348.021 1.281 0 1.39-.006 2.233-.13zm-.829-3.404c1.372-.136 2.366-.4 3.351-.89.702-.35 1.265-.754 2.237-1.606l.548-.478c.01-.008-.087-.123-.216-.257-.248-.256-.417-.48-.417-.553 0-.077.37.06.648.242.627.407 1.302.63 1.765.582.25-.025.635-.141.635-.192 0-.017-.106-.191-.236-.387-.48-.726-.808-1.545-.934-2.333-.071-.44-.072-.443-.244-.567l-.173-.124.26-.013c.144-.007.659.045 1.144.115 3.516.509 6.153.42 8.82-.297.6-.161 1.693-.518 1.693-.553 0-.073-1.517-.769-2.618-1.2-.358-.14-.543-.236-.588-.304-.036-.055-.053-.112-.039-.127.041-.04 1.14.257 1.75.474.298.106.899.368 1.335.581l.793.388.752-.372c.414-.204.992-.513 1.284-.687.602-.358 1.379-.939 1.325-.99-.059-.055-1.135-.287-1.86-.4-1.193-.187-2.313-.3-4.432-.446-1.238-.086-1.426-.12-1.486-.277a.394.394 0 0 1-.026-.108c0-.05 1.153-.05 1.918.002.33.023.924.062 1.32.087 1.357.086 3.04.297 4.268.534l.797.154.17-.164c.478-.462 1.05-1.288 1.464-2.112.32-.637.469-.867.63-.973.108-.07.118-.071.167-.004.03.04.131.31.227.601.181.55.494 1.242.722 1.599l.133.206.148-.143a2 2 0 0 0 .49-.82c.087-.265.097-.374.096-1.017-.002-.853-.03-.961-.462-1.724-.294-.52-.327-.638-.195-.708.107-.058.255 0 .483.185.273.223.683.428 1.187.593.253.083.468.152.477.152.009 0-.084-.132-.207-.293-.414-.544-.812-1.307-.943-1.81-.135-.519-.046-1.217.228-1.796.07-.15.291-.538.49-.864.823-1.342 1.671-3.229 2.133-4.741.552-1.81.84-3.513.883-5.228.058-2.324-.232-3.757-1.059-5.229-.467-.83-1.22-1.484-1.87-1.622-.407-.086-.512-.091-1.016-.053-1.215.094-2.276.47-3.641 1.293-.624.376-1.272.805-1.31.866-.015.023.03.143.099.266.258.461.44.971.445 1.24.006.417-.289.92-.794 1.35l-.236.202-.152-.116a6.18 6.18 0 0 1-.544-.564c-1.288-1.47-2.416-2.337-4.561-3.505l-.584-.318-.05-.225a1.531 1.531 0 0 0-.077-.264c-.06-.092-1.31-.443-2.205-.62-.949-.187-2.794-.405-3.433-.406h-.194l-.079.23c-.052.155-.106.238-.165.256-.048.015-.602.043-1.23.064-1.156.038-1.603.087-2.54.28-.28.057-.667.132-.86.167-.193.034-.727.186-1.185.338-.726.239-1.553.445-1.59.396a12.43 12.43 0 0 1-.364-.99c-.062-.237-.055-.591.014-.753a.952.952 0 0 1 .19-.26.57.57 0 0 0 .133-.156c0-.017-.167-.121-.37-.232-.205-.11-1.143-.643-2.086-1.182-2.914-1.667-3.614-2.032-4.494-2.342-.79-.278-1.546-.339-2.15-.173-.511.14-1.062.427-1.367.712-.493.461-1.044 1.343-1.28 2.047-.455 1.363-.213 3.72.544 5.292.103.215.457.813.786 1.329l.598.937-.1.227c-.056.125-.248.49-.427.812a34.89 34.89 0 0 0-.723 1.408c-.219.452-.485.953-.59 1.113-.298.446-.687.782-1.382 1.19-.795.467-1.86 1.174-1.86 1.235 0 .064 1.114.018 1.614-.067.201-.034.401-.054.444-.046.308.062.312.065.312.173 0 .077-.107.22-.384.51-.427.448-.702.845-.883 1.274-.13.308-.279.91-.246.996.02.053 1.502.694 1.529.662.007-.009.113-.165.234-.347.19-.284.234-.326.313-.301.131.04.128.028.077.326-.026.148-.047.35-.047.446 0 .17.007.18.222.288.733.369 3.198 1.834 4.053 2.408 1.343.902 2.32 1.69 2.717 2.19l.124.157-.11.027c-.078.02-.149 0-.252-.073l-1.009-.723c-1.362-.981-2.369-1.612-4.39-2.752-1.189-.67-1.398-.772-1.398-.684 0 .41.303 1.787.543 2.467l.156.44 1.382.415c.76.229 1.617.504 1.905.613.582.22 1.297.562 1.507.722.115.088.265.297.265.37 0 .01-.356-.123-.79-.297-.89-.356-1.78-.667-2.407-.84-.233-.064-.683-.19-1.002-.28-.318-.09-.59-.165-.604-.165-.04 0 .26.57.55 1.045a13.503 13.503 0 0 0 2.055 2.533c.602.574 1.208 1.058 2.092 1.67 1.78 1.23 2.65 1.757 4.297 2.595.593.303 1.141.587 1.217.633.122.074.223.258.17.311-.036.036-.843-.265-1.755-.656a17.474 17.474 0 0 0-.936-.384c-.022 0-.182.093-.355.206-.603.393-1.264.586-2.437.712-.426.046-.688.091-.688.12 0 .09.247.434.387.54.205.155.61.314 1.105.434.32.077.452.13.507.2.04.053.074.11.074.128.002.07-.277.195-.543.242-.817.145-1.598.54-2.137 1.081-.224.225-.494.57-.494.631 0 .014.16.024.353.024.41 0 .857-.102 1.276-.293.158-.071.295-.13.303-.13.009 0 .016.066.016.147 0 .127-.044.19-.311.455-.42.416-.587.752-.612 1.236-.024.444.091.922.34 1.42.205.405.102.346 1.07.613 1 .276 1.37.528 1.661 1.132.184.383.09.357.984.269zm6.149-8.198c-.076-.022-.138-.06-.138-.085 0-.14.864-.891 1.25-1.086a1.483 1.483 0 0 1 1.767.323c.222.238.254.377.116.514-.151.152-.287.113-.658-.19-.455-.37-.937-.281-1.817.335-.186.13-.348.235-.36.233a3.377 3.377 0 0 1-.16-.044zm-.061-3.786a2.603 2.603 0 0 1-1.323-.82c-.17-.204-.21-.314-.3-.85-.082-.48-.191-.692-.427-.83-.166-.098-.207-.103-.756-.092l-.58.012-.247-.263c-.465-.493-.842-1.152-.879-1.535-.032-.34.12-.531.625-.787l.233-.118-.38-.055c-1.572-.225-4.047-1.112-5.278-1.89-.678-.428-1.105-.777-1.46-1.194-1.308-1.532-1.846-4.185-1.349-6.647.328-1.623 1.018-2.892 2.187-4.024a7.325 7.325 0 0 1 2.714-1.691c.2-.071.328-.14.328-.176 0-.136.134-.306.305-.388.266-.127.802-.212 1.663-.263.893-.053 1.575-.025 2.304.093 1.454.236 3.108 1.099 4.173 2.177.491.496.526.56.44.8l-.067.184.229.332c.615.892.991 1.852 1.114 2.84.069.553.058 1.732-.022 2.275-.154 1.063-.55 2.388-.956 3.207-.43.863-.929 1.556-1.665 2.311-.787.805-1.297 1.191-2.143 1.621-.244.124-.415.23-.38.235.035.005.326.03.648.055 1.86.146 3.435.677 4.706 1.589.18.129.32.22.312.201a27.86 27.86 0 0 0-.195-.38 4.096 4.096 0 0 1-.457-1.492c-.183-1.535.048-3.339.662-5.176.71-2.127 1.49-3.427 2.703-4.509.48-.429 1.205-.919 1.705-1.153l.368-.172.013-.218.013-.217.296-.1c.713-.241 1.059-.285 2.244-.287.902-.001 1.176.013 1.524.078 1.873.35 3.481 1.558 4.438 3.33l.208.385-.136.14-.136.14.104.206c.058.114.175.397.262.63.885 2.369.97 4.718.25 6.875-.418 1.25-.95 2.066-1.827 2.8-1.25 1.044-2.731 1.614-4.955 1.903-.982.128-1.654.106-2.6-.087-1.12-.228-2.421-.825-3.313-1.519-.436-.339-.435-.325.011.263.422.555.697 1.109.694 1.396-.003.328-.226.488-1.08.773-.647.217-.806.207-1.305-.08-.461-.266-.728-.365-.986-.365-.255 0-.347.042-.638.292-.139.12-.319.235-.4.258-.211.06-.952.046-1.236-.023zm4.2-.465c.35-.089.942-.315.983-.375.083-.125.014-.285-.353-.808-1.024-1.46-1.708-2.047-3.033-2.606-.66-.278-1.405-.49-2.255-.642-.741-.132-2.031-.134-2.625-.006-.467.102-.786.243-.9.398-.077.108-.077.113.028.35.22.496.778 1.201.91 1.149.327-.13.919-.084 1.202.09.43.268.55.464.672 1.108.105.555.188.723.47.946.393.311.763.423 1.411.425l.432.002.165-.165c.2-.2.481-.338.765-.375.446-.06 1.12.149 1.556.48.093.071.197.122.232.114.035-.01.188-.047.34-.085zm6.506-.931c1.606-.21 2.985-.642 3.97-1.246 1.626-.997 2.47-2.405 2.82-4.71.275-1.797-.075-3.934-.93-5.683-.638-1.303-1.294-2.037-2.362-2.642-.986-.559-2.329-.899-3.552-.9-.865-.001-1.296.1-2.114.493-1.072.516-1.984 1.283-2.756 2.316-.517.693-.815 1.272-1.246 2.425-.772 2.06-1.06 3.713-.935 5.357.058.756.159 1.169.416 1.691.173.351.255.46.645.849a7.471 7.471 0 0 0 2.835 1.733 7.226 7.226 0 0 0 3.209.317zm-2.676-3.234c-1.164-.272-1.939-.878-2.415-1.887a3.283 3.283 0 0 1-.344-1.337c-.072-1.128.335-2.197 1.284-3.37.904-1.117 1.941-1.682 3.19-1.736.732-.033 1.227.118 1.905.58.27.184.726.65.927.945.334.489.595 1.206.684 1.872.057.428-.017.92-.239 1.583-.54 1.614-1.723 2.847-3.171 3.306-.424.134-1.342.156-1.821.044zm.06-4.008c.471-.212 1.023-.915 1.206-1.538.224-.76-.144-1.462-.833-1.591-.232-.044-.687.109-.99.332-.924.68-1.208 1.826-.648 2.613.237.333.763.409 1.265.184zm-9.956 2.636c1.547-.884 2.89-2.288 3.65-3.817.98-1.969 1.292-4.47.78-6.236-.4-1.38-1.596-2.866-2.95-3.667-.654-.387-1.203-.585-2.16-.782-.892-.183-1.401-.23-2.193-.204-1.65.056-2.993.512-4.206 1.428-.481.363-1.198 1.098-1.524 1.563-.947 1.351-1.446 3.308-1.297 5.092.163 1.95.793 3.419 1.864 4.34.843.725 1.892 1.265 3.586 1.845.856.293 1.709.508 2.366.596.672.09.736.095 1.209.103l.404.007zm-2.2-2.462c-1.746-.286-3.013-1.431-3.36-3.038-.088-.413-.087-1.227.004-1.662.132-.63.429-1.24.837-1.72.099-.116.351-.34.56-.5 1.125-.854 2.208-1.202 3.514-1.131 1.789.097 3.01 1.178 3.437 3.042.104.456.107.502.062.969a5.046 5.046 0 0 1-.81 2.283c-.232.34-.705.838-1.034 1.087-.342.258-.949.549-1.316.63-.426.093-1.438.115-1.893.04zm-.453-3.645a2.388 2.388 0 0 0 1.035-.631c.472-.472.71-1.017.71-1.63 0-.358-.102-.654-.294-.853-.14-.147-.528-.317-.805-.353-.875-.115-2.017.771-2.283 1.772-.09.34-.077.852.029 1.07.111.23.452.54.686.622.238.085.64.086.922.002zm27.345 1.389c-.095-.013-.144-.106-.466-.89-1.09-2.653-2.448-4.905-4.061-6.736-.491-.556-.557-.701-.422-.921.133-.215.406-.416.848-.625.73-.346 1.637-.488 2.195-.345.9.231 1.938 1.204 2.436 2.283.654 1.419.72 3.343.185 5.447-.158.623-.492 1.664-.558 1.742-.029.033-.1.053-.157.045zm.116-1.481c.39-1.417.492-2.403.388-3.77-.099-1.306-.72-2.563-1.595-3.223a4.508 4.508 0 0 0-.603-.371c-.311-.153-.326-.156-.804-.154-.667.003-1.236.175-1.835.553l-.163.104.095.1c.052.056.114.09.138.076.023-.015.03-.007.016.016-.015.024.08.165.208.314 1.448 1.668 2.866 4.019 3.681 6.1.162.413.304.752.315.752.012 0 .083-.223.159-.497zm-35.416-8.386c-.367-.367-.684-1.404-.683-2.229.003-1.107.507-2.173 1.188-2.513.363-.182.658-.232 1.203-.205.793.04 1.607.243 2.346.585.802.373 1.634 1.007 1.498 1.143-.02.02-.312.105-.65.188-.784.193-1.196.328-1.67.548-.932.433-1.703 1.102-2.377 2.06-.258.367-.486.586-.609.586-.046 0-.157-.073-.246-.163zm.468-.757c.921-1.38 2.598-2.438 4.087-2.58.21-.02.255-.037.22-.08-.085-.102-1.16-.606-1.564-.733-.654-.205-1.07-.275-1.651-.278-.486-.002-.548.007-.762.11-.319.151-.496.34-.668.711-.396.853-.392 1.985.01 2.893.058.133.114.242.122.242.009 0 .102-.128.206-.285zm-4.706 13.164a9.66 9.66 0 0 0 .39-.471l.202-.262-.159-.066c-.088-.037-.367-.16-.62-.273l-.462-.206.028.327c.027.321.146.89.235 1.123.057.149.123.12.386-.172zm34.513 31.812a1.213 1.213 0 0 1-.63-.542c-.333-.659.098-1.457.865-1.603.557-.105 1.159.263 1.276.782.041.184-.041.617-.163.856-.113.22-.385.462-.585.517-.21.058-.59.053-.763-.01zm2.294-3.518a.768.768 0 0 1-.444-.72c0-.252.247-.623.735-1.104.437-.43.782-.65 1.276-.812.306-.1.4-.111.994-.111.963 0 1.538.15 2.71.713.87.417 1.503.57 2.374.57.918 0 1.907-.53 2.275-1.22.324-.608.376-1.56.129-2.367-.378-1.233-1.355-2.234-2.536-2.598-.255-.079-.41-.098-.803-.096a5.24 5.24 0 0 0-.756.054c-.625.12-1.421.443-2.215.898-.356.203-.394.215-.611.197-.343-.028-.458-.13-.473-.42a1.072 1.072 0 0 1 .03-.343c.05-.135.584-.596 1.045-.903.694-.463 1.41-.757 2.151-.885.453-.078 1.267-.088 1.637-.02 1.214.22 2.382.969 3.172 2.035.61.821.92 1.64 1.018 2.685.107 1.142-.124 2.106-.701 2.92-.438.618-1.283 1.168-2.223 1.446-.804.238-2.278.158-3.286-.178a10.252 10.252 0 0 1-.91-.397c-1.03-.502-1.677-.66-2.31-.56-.444.068-.615.172-1.092.665-.233.24-.49.475-.572.523a.716.716 0 0 1-.614.028zM79.97 153.012c-.353-.13-.51-.38-.485-.771.013-.212.043-.305.144-.448.308-.439.852-.523 1.23-.191.348.305.367.787.044 1.124-.267.28-.64.394-.933.286zm-1.657-2.974c-.461-.242-.635-.775-.467-1.423.148-.568.469-1.036 1.356-1.978 1.227-1.303 1.343-1.97.48-2.77-.562-.52-1.198-.72-1.963-.619a5.039 5.039 0 0 0-1.526.467c-.379.184-.466.249-.783.584-.336.354-.47.552-1.018 1.509-.197.342-.317.424-.628.426-.592.003-.837-.524-.562-1.208.35-.875 1.083-1.879 1.681-2.306.57-.407 1.65-.823 2.536-.978.724-.127 1.63-.014 2.26.28.393.184.877.532 1.214.874.75.758 1.029 1.709.784 2.666-.192.752-.483 1.194-1.48 2.255-.705.75-.818.924-.866 1.34-.063.541-.166.736-.465.871-.21.096-.385.1-.553.01zm52.787-1.533a.772.772 0 0 1-.375-1.067c.083-.166.374-.41.556-.464.39-.116.9.207 1.02.645.046.173.016.365-.09.57-.178.342-.716.495-1.11.316zm.2-3.349c-.313-.226-.38-.526-.222-.987.246-.714.789-1.218 1.95-1.81.763-.39 1.292-1.004 1.346-1.564.038-.403-.184-.959-.51-1.276-.452-.439-1.281-.54-1.908-.231-.205.1-.46.295-1.153.882-.37.313-.512.362-.766.265-.33-.126-.45-.49-.276-.831.216-.423 1.028-1.255 1.494-1.53 1.146-.676 2.722-.477 3.66.464.422.423.768 1.182.869 1.903.104.752-.229 1.563-.94 2.29-.336.343-.585.512-1.295.88-.756.39-.989.578-1.176.95-.243.482-.507.722-.797.722-.056 0-.18-.057-.275-.126z" style="fill:#000" transform="translate(-73.09 -114.443)"/></g></svg>