<?xml version="1.0" encoding="UTF-8" standalone="no"?>
<!-- Created with Inkscape (http://www.inkscape.org/) -->

<svg
   width="190.08168mm"
   height="211.13557mm"
   viewBox="0 0 190.08168 211.13557"
   version="1.1"
   id="svg1"
   xml:space="preserve"
   sodipodi:docname="missingdeck-cat-better.svg"
   inkscape:version="1.3 (0e150ed, 2023-07-21)"
   xmlns:inkscape="http://www.inkscape.org/namespaces/inkscape"
   xmlns:sodipodi="http://sodipodi.sourceforge.net/DTD/sodipodi-0.dtd"
   xmlns="http://www.w3.org/2000/svg"
   xmlns:svg="http://www.w3.org/2000/svg"><sodipodi:namedview
     id="namedview1"
     pagecolor="#ffffff"
     bordercolor="#000000"
     borderopacity="0.25"
     inkscape:showpageshadow="2"
     inkscape:pageopacity="0.0"
     inkscape:pagecheckerboard="0"
     inkscape:deskcolor="#d1d1d1"
     inkscape:document-units="mm"
     inkscape:zoom="0.81430245"
     inkscape:cx="407.71092"
     inkscape:cy="396.65851"
     inkscape:window-width="1376"
     inkscape:window-height="743"
     inkscape:window-x="0"
     inkscape:window-y="25"
     inkscape:window-maximized="0"
     inkscape:current-layer="layer1" /><defs
     id="defs1" /><g
     inkscape:label="Layer 1"
     inkscape:groupmode="layer"
     id="layer1"
     style="display:inline"
     transform="translate(-12.979179,-34.837974)"><path
       style="fill:#666666;stroke-width:1"
       d="m 99.959099,245.90069 c -1.167533,-0.21124 -3.664607,-1.94333 -4.517917,-3.13381 -0.454828,-0.63454 -1.316938,-2.31332 -1.64178,-3.19701 -0.09279,-0.25242 -0.210142,-0.50775 -0.260789,-0.56742 -0.05064,-0.0597 -0.488875,0.0249 -0.973848,0.18683 -0.807438,0.27038 -1.180265,0.29981 -4.422738,0.35004 l -3.540967,0.0549 -0.77735,-0.40095 c -0.427542,-0.22052 -1.190519,-0.49701 -1.6955,-0.61435 -0.711975,-0.16548 -1.014518,-0.3119 -1.347293,-0.65192 -0.572227,-0.58472 -0.954489,-1.681 -1.066932,-3.05987 l -0.09227,-1.13147 -1.218961,-0.17195 c -2.079035,-0.2933 -5.336108,-0.13728 -8.601904,0.41198 -6.471643,1.08833 -10.730757,2.28295 -14.686628,4.11945 -1.288809,0.59831 -2.442946,0.66339 -3.447484,0.19447 -0.987782,-0.46123 -3.706171,-3.31165 -4.953536,-5.19423 -1.416129,-2.13723 -3.748158,-7.89665 -4.863788,-12.01205 -2.100667,-7.74912 -1.775139,-17.1289 0.678999,-19.56435 0.794346,-0.78834 1.100162,-0.85402 2.051772,-0.44073 1.963732,0.85282 3.567067,2.14957 4.94548,3.99988 2.631123,3.53185 4.385999,7.09419 5.041008,10.23303 0.143332,0.68682 0.280971,1.32504 0.305919,1.41828 0.02697,0.10091 0.578009,-0.29732 1.362439,-0.98459 3.934,-3.44716 7.913645,-5.57624 12.110911,-6.47923 1.110911,-0.2391 1.814795,-0.30134 3.448775,-0.30538 1.12914,-0.002 2.428293,0.0417 2.887007,0.0988 l 0.834023,0.10385 0.68044,-0.91549 c 0.896565,-1.20623 2.884161,-3.23727 4.146539,-4.23717 0.556158,-0.4405 1.011194,-0.82791 1.011194,-0.86088 0,-0.0329 -0.804852,-0.90805 -1.788561,-1.94462 -1.886266,-1.98759 -3.518231,-3.87809 -4.571218,-5.29532 l -0.633198,-0.85225 -0.0862,0.85225 c -0.238811,2.36154 -0.374252,2.98797 -0.663115,3.06715 -0.152463,0.0419 -0.313278,0.0768 -0.357387,0.0777 -0.196315,0.004 -0.223868,-0.99906 -0.113971,-4.15022 0.06479,-1.85768 0.09271,-3.40322 0.06207,-3.43455 -0.04786,-0.049 -1.765871,0.27845 -2.387157,0.45492 -0.346024,0.0981 -1.307749,3.3594 -1.851823,6.27939 -0.120943,0.64902 -0.263724,1.23014 -0.317323,1.2914 -0.05359,0.0613 -0.217443,0.0724 -0.364134,0.0249 -0.62802,-0.2038 -0.671334,-2.40919 -0.103751,-5.28242 0.160245,-0.81129 0.280061,-1.47503 0.266211,-1.47503 -0.0139,0 -0.476901,0.19699 -1.029027,0.43776 -0.915458,0.39915 -1.012214,0.47711 -1.098627,0.88501 -0.05211,0.24591 -0.417587,2.39428 -0.812156,4.77399 -0.70006,4.22212 -1.32752,7.6962 -1.404238,7.77482 -0.02091,0.0218 -0.187487,8.8e-4 -0.370008,-0.0458 l -0.33181,-0.0851 0.02788,-2.96966 0.02788,-2.96969 -1.090649,-0.54801 c -0.599855,-0.30135 -1.131768,-0.55214 -1.182026,-0.55724 -0.134568,-0.0116 -0.657152,1.805 -1.193683,4.15413 -0.346626,1.5176 -0.541734,2.12673 -0.736506,2.29925 -0.463912,0.41088 -0.54485,0.10591 -0.542266,-2.04407 0.0021,-1.7457 0.04737,-2.17637 0.365021,-3.47211 0.199439,-0.81353 0.334379,-1.55441 0.299856,-1.64631 -0.05325,-0.14178 -1.389713,-0.61119 -1.74018,-0.61119 -0.272698,0 -1.017918,2.29501 -1.687809,5.19789 -0.377615,1.63633 -0.415164,1.72682 -0.743168,1.79121 -0.190016,0.0371 -0.374328,0.0384 -0.409615,0.002 -0.119783,-0.1218 -0.03335,-2.72556 0.12549,-3.77953 0.08692,-0.57689 0.347572,-1.63889 0.579181,-2.36003 0.231597,-0.72111 0.404749,-1.32961 0.384743,-1.35219 -0.07376,-0.0835 -1.419305,-0.41477 -1.689719,-0.41625 -0.153739,-8.9e-4 -0.363105,0.084 -0.465248,0.1884 -0.102159,0.10436 -0.392008,1.05376 -0.644142,2.10984 -0.399632,1.67379 -1.092914,3.60044 -1.295581,3.60044 -0.03719,0 -0.162466,-0.18743 -0.278395,-0.41654 -0.175729,-0.34726 -0.19656,-0.65799 -0.125091,-1.86835 0.34541,-5.85003 1.372318,-9.93359 4.473213,-17.78795 5.136398,-13.0101 5.877382,-14.62281 8.729217,-18.99883 2.142641,-3.28779 3.024016,-4.29092 4.301412,-4.89568 0.589121,-0.27874 0.617499,-0.31435 0.442278,-0.55286 -1.258214,-1.7127 -1.720775,-4.69126 -1.037288,-6.67939 0.173527,-0.50482 0.355294,-1.00844 0.403908,-1.11926 0.07706,-0.17567 -0.07586,-0.19486 -1.191301,-0.14904 -1.112707,0.0454 -1.354117,0.0157 -1.850032,-0.22948 -0.773192,-0.38248 -1.040116,-0.9255 -0.775468,-1.57758 0.598094,-1.47373 1.991402,-3.1454 3.485582,-4.182 0.443174,-0.30754 1.355392,-0.83051 2.027152,-1.16236 l 1.221379,-0.6034 -0.803443,-0.43864 c -0.883991,-0.48265 -1.642919,-1.16686 -2.098824,-1.89225 -0.352235,-0.56043 -0.702944,-1.70319 -0.702944,-2.29052 0,-0.74504 0.773571,-1.0575 3.078017,-1.24339 2.109105,-0.16999 3.559473,-0.42833 4.815134,-0.85716 0.971621,-0.33183 2.756703,-1.17076 2.756703,-1.29552 0,-0.032 -0.418616,-0.30693 -0.930261,-0.61117 -3.259141,-1.93749 -9.369319,-6.2163 -11.644266,-8.15419 -1.808849,-1.54085 -4.762199,-4.5793 -6.07613,-6.25121 -1.446544,-1.84066 -3.32839,-4.84202 -4.302098,-6.86139 l -0.916739,-1.90118 -1.377571,-0.3362 c -5.131334,-1.25224 -9.661781,-1.90812 -15.042743,-2.17786 -2.426964,-0.1218 -2.938123,-0.18251 -3.207786,-0.3808 -0.176425,-0.12984 -0.338666,-0.32895 -0.360528,-0.44245 -0.06153,-0.31934 0.827505,-0.40334 4.209873,-0.3978 4.359508,0.006 8.052562,0.46606 12.588901,1.56423 1.085949,0.26293 2.128275,0.50585 2.316276,0.53994 l 0.341826,0.0619 -0.43152,-1.38943 c -0.713298,-2.29678 -1.102938,-4.30923 -1.194782,-6.17104 l -0.08384,-1.6995 -0.699545,0.91282 c -1.610966,2.10213 -2.551641,2.9451 -3.28653,2.9451 -0.568421,0 -1.223949,-0.5886 -1.568726,-1.40853 -0.31341,-0.74481 -0.74195,-2.95094 -0.869079,-4.473528 l -0.09159,-1.096989 -0.719918,-0.325886 c -3.519644,-1.593235 -8.499104,-3.320519 -14.117544,-4.89715 -1.793557,-0.503311 -3.408185,-0.98739 -3.588058,-1.075782 -0.358237,-0.175874 -0.769199,-0.811029 -0.622134,-0.961298 0.05078,-0.05205 0.511166,-0.09052 1.023075,-0.08539 2.073045,0.01769 10.157543,2.427972 15.779286,4.700622 1.321282,0.534146 2.432781,0.971184 2.469997,0.971184 0.03722,0 0.06764,-0.0818 0.06764,-0.182131 0,-0.444255 0.700127,-2.601281 1.162624,-3.581965 0.279153,-0.591882 0.787479,-1.454108 1.129648,-1.916043 0.342168,-0.46195 0.658225,-0.899576 0.702342,-0.972517 0.05311,-0.08796 -0.710448,-0.126934 -2.259143,-0.116164 -1.953197,0.01153 -2.448932,-0.02167 -3.003122,-0.220211 -0.36507,-0.130049 -0.732491,-0.321244 -0.816492,-0.424638 -0.250784,-0.308807 -0.02456,-1.07482 0.488646,-1.655394 0.504924,-0.571085 4.568577,-3.400487 6.759795,-4.706622 0.737162,-0.439395 1.602036,-1.034316 1.921947,-1.322083 0.838761,-0.754435 1.857332,-2.395866 3.00969,-4.850173 1.110693,-2.365581 2.000545,-3.975574 3.055004,-5.527318 l 0.694902,-1.022649 -0.944933,-1.026394 c -2.812971,-3.055503 -4.747986,-7.324998 -5.631007,-12.42453 -0.397893,-2.297876 -0.433188,-7.104696 -0.06479,-8.825291 0.59563,-2.781992 2.02011,-5.621034 4.067141,-8.106006 1.217974,-1.478552 2.777065,-2.486677 5.16075,-3.337033 1.148202,-0.409631 1.246242,-0.422143 3.300493,-0.421894 1.918415,2.14e-4 2.236151,0.03408 3.385051,0.361779 2.685016,0.765586 6.179844,2.489494 11.627394,5.735471 3.648489,2.174019 8.012948,4.857768 10.165237,6.250715 l 1.50421,0.97353 1.107101,-0.66818 c 4.382284,-2.644941 10.024941,-4.681789 16.151821,-5.830368 l 1.79053,-0.335642 0.53859,0.540145 c 1.02396,1.026863 1.40389,2.043227 1.88182,5.034152 l 0.29341,1.835594 1.40767,0.100039 c 6.46374,0.459339 11.12061,1.306228 15.5097,2.820582 1.19069,0.410838 1.41571,0.453857 1.51034,0.288965 1.15917,-2.021702 1.7185,-2.812592 2.73621,-3.868908 0.90633,-0.940763 1.36494,-1.304399 2.13151,-1.690088 l 0.97674,-0.491457 0.81132,0.418519 c 1.22669,0.632718 4.41469,2.860907 5.5979,3.912484 1.38415,1.230192 2.96681,3.174493 4.55026,5.590062 0.70907,1.081681 1.33505,1.984131 1.39109,2.005441 0.0561,0.02168 0.81579,-0.458008 1.68828,-1.065176 5.5016,-3.828489 10.22362,-5.594768 14.95708,-5.594768 1.93425,0 2.83463,0.177783 4.06715,0.802538 1.8127,0.919016 3.16889,2.20084 4.44762,4.203831 2.0785,3.255641 3.41107,7.138208 3.83929,11.186066 0.23792,2.248545 0.31265,7.501815 0.13978,9.816969 -0.22582,3.025623 -1.02686,7.68337 -1.95152,11.349303 -1.42165,5.636276 -4.00618,11.698555 -7.49395,17.577665 -1.46187,2.46418 -2.09604,3.82985 -2.27547,4.90021 -0.13148,0.7853 -0.11713,0.95355 0.15367,1.81764 0.5493,1.7515 1.5068,3.42494 3.10743,5.43102 0.41197,0.51631 0.80729,1.09539 0.87854,1.28688 0.21613,0.58119 0.15582,1.22196 -0.14401,1.52834 -0.24369,0.24903 -0.36576,0.2704 -1.12275,0.19638 -0.91823,-0.0899 -1.43022,-0.2326 -3.0626,-0.85329 -0.5822,-0.22146 -1.05855,-0.38932 -1.05853,-0.37309 6e-5,0.0157 0.1097,0.32448 0.24339,0.68501 0.40643,1.09486 0.56604,2.58619 0.47325,4.42238 -0.16931,3.35673 -1.1068,5.45119 -2.88072,6.43776 -0.58629,0.32607 -0.70273,0.34809 -1.16647,0.22051 -0.72046,-0.19822 -1.30279,-0.86833 -2.03767,-2.34491 -0.75838,-1.52379 -1.0005,-2.17519 -1.22455,-3.29449 l -0.17066,-0.85224 -0.76526,1.63893 c -1.1415,2.4446 -2.62549,4.8354 -3.79763,6.11819 -0.36621,0.40077 -0.38379,0.69968 -0.0411,0.69968 0.25974,0 4.66687,1.24911 7.00467,1.98537 3.98854,1.25614 6.68343,2.33588 9.8479,3.94559 1.81772,0.92465 1.82842,0.93275 1.82842,1.37782 0,0.43611 -0.0116,0.44539 -0.41699,0.35798 -0.7815,-0.16823 -1.95443,-0.60633 -4.00974,-1.49795 -3.06741,-1.33072 -9.34085,-3.40215 -14.10582,-4.65769 l -1.78794,-0.47106 -0.65001,0.6406 c -1.84613,1.81965 -4.41465,3.54714 -7.79827,5.24489 -1.39101,0.69797 -2.52802,1.29851 -2.52665,1.33457 0.001,0.0359 0.5618,0.47856 1.24549,0.98334 2.17316,1.60458 3.76544,2.96999 5.38206,4.61529 1.33908,1.36284 1.57182,1.66024 1.57182,2.00832 0,0.36332 -0.0321,0.39851 -0.28884,0.3175 -0.59368,-0.18743 -1.38757,-0.75491 -2.81975,-2.01561 -1.5622,-1.37512 -5.37184,-4.51658 -6.13548,-5.0593 l -0.45455,-0.3231 -0.97798,0.38483 c -8.87689,3.49282 -17.82661,3.72526 -21.59388,3.63742 -4.58408,-0.10693 -7.09468,-0.43111 -12.54246,-1.61999 -0.34099,-0.0744 -0.35011,-0.0623 -0.27128,0.36549 0.18066,0.98155 1.07722,3.53683 1.65134,4.70643 0.33554,0.68357 0.97791,1.84225 1.42747,2.57479 0.50903,0.82944 0.81709,1.4725 0.81655,1.70447 -0.001,0.80186 -0.75508,1.49674 -2.19692,2.02664 -0.46777,0.17193 -0.86553,0.34207 -0.88389,0.37812 -0.0182,0.0359 0.04,0.59394 0.12972,1.23976 0.20217,1.45561 0.1,4.4083 -0.19065,5.51259 -0.52269,1.98484 -0.88053,2.69686 -2.03584,4.05107 l -0.62354,0.73088 0.20641,1.54239 c 0.3309,2.47347 1.10536,5.06705 1.96799,6.59027 0.18368,0.32452 0.74906,1.03251 1.25622,1.57335 0.50713,0.54086 1.17038,1.36688 1.47383,1.8356 0.90376,1.39594 1.86755,2.55741 2.54185,3.0632 0.48456,0.36346 1.31553,0.70446 3.52797,1.44768 3.26199,1.09577 4.22463,1.56259 5.68092,2.75471 2.17004,1.77642 3.96268,3.93939 5.60544,6.7635 3.64754,6.27062 5.3267,10.55297 5.92306,15.1058 0.62849,4.79812 0.59254,8.98944 -0.10915,12.72294 -0.15912,0.84733 -0.24733,1.54056 -0.1961,1.54056 0.0515,0 0.80709,-0.28866 1.67933,-0.6411 4.7657,-1.92658 9.19963,-3.12547 13.96794,-3.77677 2.41157,-0.32943 8.21929,-0.32558 10.52157,0.006 4.78476,0.69105 8.54702,1.61244 13.77052,3.3725 2.09623,0.70634 4.30187,1.26352 5.92359,1.49643 1.75972,0.25273 1.81992,1.13254 0.13013,1.89969 -0.62617,0.28434 -0.63387,0.29454 -0.3208,0.42741 2.90123,1.2313 4.78476,2.51802 9.4608,6.46294 0.22521,0.19016 0.33547,0.44184 0.38338,0.87607 0.067,0.6065 0.065,0.60969 -0.36548,0.68937 -0.59431,0.10988 -0.90212,0.10988 -3.25557,1e-5 -2.18906,-0.10214 -6.31238,0.0353 -13.79349,0.46052 -15.14617,0.86066 -17.9304,0.96359 -21.45033,0.79323 -4.29172,-0.20782 -9.754,-0.98473 -14.86183,-2.11396 -3.49696,-0.77316 -4.35006,-0.92814 -4.6224,-0.8398 -0.13488,0.0437 -0.70046,0.68089 -1.25682,1.41591 -2.46883,3.2615 -5.62286,5.70553 -8.87659,6.87833 -1.92858,0.69519 -3.04777,0.8773 -5.38907,0.87692 -1.8794,-2.7e-4 -2.27322,-0.0405 -3.50676,-0.35788 -0.76429,-0.19665 -1.43257,-0.35756 -1.48502,-0.35756 -0.0524,0 -0.36672,0.40579 -0.69834,0.90175 -1.71251,2.56103 -4.30542,4.35605 -6.24286,4.32185 -0.45871,-0.0103 -0.97836,-0.0409 -1.154802,-0.0728 z m 15.012461,-6.0862 c 1.10839,-0.16176 3.6068,-0.96722 4.6275,-1.49182 3.88223,-1.9953 7.23059,-5.69623 8.65697,-9.56853 0.66469,-1.80454 1.48336,-5.60854 1.80607,-8.39231 0.28492,-2.4572 0.28582,-7.7681 0.001,-9.89905 -0.58325,-4.37362 -1.32207,-6.72901 -3.47525,-11.07906 -2.50223,-5.05522 -4.0046,-7.40125 -6.07564,-9.48747 -2.04354,-2.05852 -2.98557,-2.62988 -6.19817,-3.75928 -1.15592,-0.40639 -2.58979,-0.99725 -3.18635,-1.31305 -0.59655,-0.3158 -1.097,-0.56154 -1.11206,-0.54612 -0.015,0.0157 0.0306,0.52949 0.10185,1.14246 0.22611,1.94986 -0.0964,7.89166 -0.67513,12.44707 -0.26369,2.07493 -0.70639,4.67612 -1.14971,6.7548 -0.13759,0.64565 -0.25035,1.27314 -0.25035,1.39449 0,0.17782 0.8571,0.7882 1.9374,1.37955 0.0423,0.0218 0.30985,-0.13297 0.59458,-0.34695 0.62981,-0.47325 1.8099,-0.93726 3.15943,-1.2423 1.4931,-0.33747 3.40095,-0.223 4.78007,0.28709 2.16618,0.801 4.2575,2.29946 5.41288,3.8784 0.7485,1.02291 1.54101,2.5263 1.405,2.66528 -0.23186,0.23695 -0.86133,-0.21742 -2.17581,-1.57159 -1.96319,-2.02231 -3.77714,-3.21193 -5.6455,-3.70242 -1.57047,-0.41234 -4.07766,-0.0576 -5.76723,0.81561 l -0.59758,0.30878 0.43643,0.8234 c 0.55757,1.05205 1.13952,2.89009 1.33996,4.23232 0.20974,1.40395 0.20792,4.10608 -0.002,6.78102 -0.21035,2.65154 -0.1846,2.79873 0.95254,5.45418 1.08789,2.54037 1.22894,3.10133 1.32252,5.25895 0.13518,3.11482 -0.62702,6.26922 -2.01135,8.32522 -0.21551,0.31988 -0.39164,0.608 -0.39164,0.64022 0,0.074 0.93457,-0.006 2.1813,-0.18899 z m -13.00573,-2.13429 c 0.87322,-0.41545 1.54479,-1.05386 2.33075,-2.21562 1.59125,-2.35206 2.5229,-6.09323 2.08451,-8.37038 -0.39549,-2.05405 -1.67071,-3.35593 -3.16335,-3.22943 -0.79075,0.067 -1.65327,0.65899 -2.96578,2.03549 -0.958301,1.00502 -1.460729,1.99841 -1.907066,3.7706 -0.95924,3.80855 -0.194891,7.38808 1.746356,8.17978 0.53337,0.21743 1.1834,0.15864 1.87458,-0.17038 z m -20.175034,-2.70868 c 0.580551,-2.26543 1.538845,-3.07461 5.042457,-4.25782 1.884611,-0.63642 2.147838,-0.76854 2.662888,-1.33611 0.715018,-0.78794 1.171389,-2.31525 1.915874,-6.41174 0.405823,-2.23299 1.23333,-7.04765 1.23333,-7.1758 0,-0.11027 1.262243,-0.38617 2.112937,-0.46196 l 0.89395,-0.0795 0.841765,-1.54217 c 1.156193,-2.11822 2.237227,-3.64437 3.521493,-4.97155 1.20613,-1.24642 2.0639,-1.87988 3.21583,-2.3748 0.73714,-0.31672 2.46789,-0.74828 3.00097,-0.74828 0.31534,0 0.30835,0.0249 0.77502,-2.75336 0.75584,-4.49988 1.16378,-8.18553 1.42941,-12.91465 0.26097,-4.64296 -0.15396,-7.16801 -1.54812,-9.42364 -1.11414,-1.80262 -2.47059,-2.60232 -4.414,-2.60232 -1.66085,0 -2.582659,0.61528 -3.600399,2.40321 -0.79606,1.39845 -1.728151,2.20595 -1.535076,1.32984 0.383636,-1.74055 0.899992,-2.86928 1.715781,-3.75074 1.083364,-1.1705 2.704834,-1.7856 4.202864,-1.59436 0.37346,0.0479 0.67897,0.0612 0.67897,0.0309 0,-0.0313 -0.17427,-0.4888 -0.38725,-1.01659 -0.54686,-1.35513 -0.99196,-3.11502 -1.18306,-4.67795 l -0.16397,-1.3403 -1.92367,1.19079 c -5.764506,3.56843 -11.582322,5.61975 -17.495778,6.16885 -0.8919,0.0825 -1.635113,0.15941 -1.651594,0.16998 -0.117849,0.0768 -1.357762,6.96201 -1.462591,8.12149 -0.07221,0.79848 -0.141209,3.76683 -0.153372,6.59635 -0.02182,5.07872 -0.02546,5.14358 -0.27873,5.0646 -0.404765,-0.12629 -0.602169,-0.33641 -0.845241,-0.90015 -0.285702,-0.66258 -0.691405,-2.31544 -0.897098,-3.65484 l -0.158584,-1.03256 -1.230192,0.0923 c -0.676605,0.0508 -1.254978,0.1177 -1.28527,0.14863 -0.120633,0.12323 0.39462,2.11758 0.744504,2.88159 0.428069,0.93475 1.299747,1.99771 4.152795,5.06412 2.275058,2.44516 3.184114,3.20466 5.421411,4.52952 0.846858,0.50149 1.726893,1.02916 1.955639,1.17265 l 0.415897,0.26078 -0.32196,0.30909 -0.321959,0.30909 -0.671341,-0.24528 c -0.369239,-0.13474 -1.324274,-0.55912 -2.122304,-0.94283 -0.798031,-0.38375 -1.523813,-0.69771 -1.612854,-0.69771 -0.258784,0 -2.662502,2.24466 -3.677824,3.43444 -1.890736,2.21562 -3.1465,4.60067 -3.597118,6.83192 -0.171307,0.84828 -0.244055,1.75601 -0.245267,3.05995 -0.0032,3.50887 0.760653,6.12646 2.441872,8.36782 0.654552,0.87267 1.23447,1.9939 1.101526,2.12973 -0.238537,0.24376 -2.067924,-1.34195 -2.802339,-2.42906 -0.627965,-0.92952 -1.469601,-2.89751 -1.748229,-4.08788 -0.797582,-3.40744 -0.648233,-6.62383 0.439728,-9.47009 0.240598,-0.62943 0.437447,-1.18445 0.437447,-1.23337 0,-0.15648 -4.640313,0.0697 -5.838174,0.28464 -3.272479,0.58711 -7.24533,2.49564 -10.485784,5.03734 -1.330995,1.04397 -3.307698,2.85549 -3.307698,3.03131 0,0.22205 0.191946,0.1273 1.608391,-0.79378 2.302245,-1.49723 2.058163,-1.42054 2.653183,-0.83367 1.121909,1.10649 2.508363,3.48384 3.119587,5.34909 0.932348,2.84525 1.128272,6.35385 0.511671,9.1631 -0.264393,1.20456 -0.303796,1.58064 -0.188645,1.80048 0.10039,0.19172 0.231567,0.25861 0.422881,0.21556 2.007396,-0.4499 6.360138,-1.30999 7.439492,-1.47005 2.918277,-0.43266 6.106546,-0.48097 8.625458,-0.13061 l 0.646855,0.0899 0.473196,-0.72827 c 0.739425,-1.13795 1.887095,-2.26686 2.474757,-2.43426 0.278211,-0.0793 1.397262,-0.39597 2.486748,-0.70376 l 1.980882,-0.5597 0.296186,-1.11086 c 1.46277,-5.48637 2.513528,-11.08154 4.406808,-23.46565 0.92281,-6.03621 2.072086,-12.77917 2.327242,-13.65429 0.163825,-0.56178 0.682515,-1.27059 0.824525,-1.12671 0.09033,0.0917 -0.0025,1.10337 -0.328321,3.57084 -0.06662,0.50478 -0.268544,2.0978 -0.448682,3.54007 -0.180138,1.44221 -0.763473,5.69026 -1.296292,9.44012 -1.715176,12.07102 -2.83093,17.98641 -4.253614,22.55143 -0.432905,1.38908 -0.389756,1.3575 -2.874362,2.10234 -2.697393,0.80862 -3.595751,1.39312 -4.342997,2.8257 -0.456867,0.87589 -0.640236,2.0991 -0.461017,3.07528 0.113327,0.61733 0.231234,0.47714 0.508491,-0.60483 z m -29.984294,-0.99139 c 0.588045,-0.82177 0.820514,-3.24748 0.494661,-5.1615 -0.267333,-1.57028 -1.223572,-4.51652 -1.819013,-5.60454 -0.582301,-1.06399 -1.783331,-2.37567 -2.581913,-2.8198 -0.767104,-0.42664 -1.756977,-0.6654 -2.315874,-0.55865 -0.522247,0.0998 -1.222566,0.71612 -1.63921,1.44256 l -0.316952,0.55267 0.56696,1.69104 c 0.686864,2.04871 1.121121,3.17479 2.075711,5.3825 1.432189,3.31228 2.745857,5.16765 3.815499,5.3888 0.688277,0.14218 1.499957,-0.006 1.720131,-0.31308 z m -8.333763,-16.16951 c -0.219201,-1.86228 -0.212895,-8.51701 0.01006,-10.55462 0.165922,-1.51673 0.524772,-3.01711 0.966142,-4.03942 0.209775,-0.48588 0.208503,-0.49572 -0.07811,-0.60528 -0.83374,-0.31877 -0.844098,-0.31681 -1.101678,0.2072 -0.366057,0.74483 -0.746767,1.94953 -1.008919,3.19262 -0.190286,0.90233 -0.233627,1.70502 -0.233297,4.32049 2.4e-4,1.8447 0.07159,3.79837 0.167583,4.58893 0.192679,1.58674 0.722925,4.38645 0.93475,4.93555 l 0.14449,0.37454 0.180866,-0.51895 c 0.152329,-0.43713 0.155186,-0.737 0.01816,-1.90114 z m 20.687457,-18.86134 c 0,-0.0586 0.08685,-0.78144 0.193007,-1.60612 0.902505,-7.01122 1.95275,-10.20926 7.144881,-21.75645 1.832004,-4.07431 3.591512,-7.99455 3.910021,-8.71156 0.318504,-0.71702 0.7608,-1.58727 0.982878,-1.9339 0.390006,-0.60879 0.424873,-0.63025 1.022563,-0.63025 h 0.61879 l -0.23181,-0.40801 c -0.487992,-0.85901 -1.783698,-1.77898 -3.217832,-2.28475 -1.081184,-0.38131 -4.178216,-1.10953 -4.718684,-1.10953 -0.516768,0 -1.29933,0.57434 -1.978062,1.45178 -2.531991,3.27313 -5.486957,8.60727 -7.076446,12.77401 -0.357612,0.93743 -1.316135,3.327 -2.130047,5.31007 -1.81663,4.42618 -2.918088,7.29006 -3.630714,9.44013 -0.565364,1.70576 -1.681989,6.03101 -1.594386,6.17585 0.02759,0.0458 0.470175,0.12411 0.98338,0.17467 2.434558,0.23849 6.297436,1.48431 8.888418,2.86644 0.69445,0.37045 0.834024,0.41192 0.834024,0.24777 z m 3.999428,-7.68095 c 1.958083,-0.88488 5.467153,-1.58533 8.373791,-1.67157 1.608093,-0.0478 1.484255,0.0966 1.485518,-1.73348 0.0018,-2.55583 0.21799,-4.38141 0.899288,-7.59271 0.351645,-1.65748 0.639351,-3.1147 0.639351,-3.23827 0,-0.20286 -0.280761,-0.23352 -2.886312,-0.31529 -1.587472,-0.0498 -3.16089,-0.0533 -3.496485,-0.0103 l -0.610177,0.0828 -0.44001,1.06906 c -0.241994,0.58801 -1.05742,2.51464 -1.812035,4.28137 -1.723647,4.0355 -2.480151,6.0724 -2.876506,7.74503 -0.29043,1.22561 -0.309896,1.6951 -0.07031,1.6951 0.05423,0 0.411485,-0.1416 0.79388,-0.31417 z m 16.090675,-16.60734 c 1.476849,-0.22083 3.014062,-0.48695 3.416028,-0.59175 1.538637,-0.40103 4.468492,-1.42641 6.041807,-2.11448 1.599453,-0.69947 5.214709,-2.65911 7.405776,-4.01432 2.50713,-1.55065 3.68488,-3.62287 3.92575,-6.90728 0.0858,-1.16991 -0.0988,-3.1916 -0.36731,-4.0228 -0.13701,-0.42383 -0.22733,-0.50391 -0.67144,-0.59596 -0.28217,-0.0586 -0.96127,-0.2577 -1.50885,-0.44277 l -0.99562,-0.33644 -1.18569,1.1424 c -3.814781,3.6756 -6.276743,5.41545 -9.568303,6.76182 -3.678027,1.50447 -6.861263,2.0978 -11.263941,2.09953 l -1.939585,7.4e-4 -0.64992,1.46623 c -0.357457,0.80644 -1.231666,2.7938 -1.94269,4.41631 -0.711025,1.62253 -1.350127,3.05249 -1.420228,3.1777 -0.07011,0.12515 -0.127462,0.258 -0.127462,0.29487 0,0.0371 1.837462,0.0672 4.083249,0.0672 3.884383,0 4.214019,-0.0175 6.76843,-0.40127 z m -2.511433,-10.54321 c 4.158678,-0.41986 7.171414,-1.23756 10.158112,-2.75709 2.127146,-1.08225 3.83316,-2.33317 6.778993,-4.97072 0.882161,-0.7898 1.629489,-1.45625 1.660739,-1.48101 0.0312,-0.0249 -0.2631,-0.38269 -0.654118,-0.79544 -0.753049,-0.79492 -1.263221,-1.48757 -1.263221,-1.715 0,-0.23847 1.117705,0.188 1.963919,0.74957 1.89852,1.25993 3.94507,1.95031 5.34983,1.80466 0.75841,-0.0787 1.92467,-0.43921 1.92467,-0.59508 0,-0.0523 -0.32189,-0.59259 -0.71531,-1.20046 -1.45417,-2.24701 -2.44909,-4.78394 -2.83326,-7.22445 -0.2146,-1.36304 -0.21854,-1.37221 -0.73942,-1.75557 l -0.52369,-0.38539 0.79055,-0.0387 c 0.43479,-0.0218 1.99377,0.13904 3.4644,0.35618 10.65903,1.57412 18.65156,1.29874 26.73227,-0.9212 1.81907,-0.49972 5.13245,-1.60481 5.13245,-1.71179 0,-0.22794 -4.59796,-2.38174 -7.93443,-3.71653 -1.08424,-0.43375 -1.64561,-0.73089 -1.78168,-0.94309 -0.10915,-0.17037 -0.16215,-0.34715 -0.11726,-0.39283 0.1237,-0.12629 3.45363,0.79593 5.30406,1.4692 0.90331,0.3287 2.72379,1.13814 4.04541,1.79876 l 2.40299,1.20114 2.28038,-1.15032 c 1.25422,-0.63266 3.00498,-1.59092 3.89057,-2.12944 1.82453,-1.10947 4.17969,-2.90733 4.01602,-3.06568 -0.17724,-0.17156 -3.43957,-0.88896 -5.63768,-1.23984 -3.61418,-0.57691 -7.00927,-0.9258 -13.43367,-1.38044 -3.75221,-0.26542 -4.3207,-0.374 -4.50292,-0.8592 -0.0439,-0.11668 -0.0797,-0.26635 -0.0797,-0.33265 0,-0.15823 3.49521,-0.1549 5.81415,0.006 1.00125,0.0693 2.80199,0.19015 4.00166,0.2682 4.11269,0.26824 9.21559,0.92135 12.93647,1.65542 l 2.41493,0.4764 0.51545,-0.5092 c 1.44843,-1.43093 3.18399,-3.98956 4.43648,-6.54043 0.96847,-1.97244 1.42069,-2.68627 1.90871,-3.01299 0.32762,-0.21929 0.35934,-0.22023 0.50842,-0.0116 0.0873,0.12207 0.39659,0.96028 0.68706,1.86241 0.54887,1.7049 1.49582,3.84553 2.18945,4.94954 l 0.40238,0.64044 0.44814,-0.44376 c 0.64316,-0.63693 1.13966,-1.48818 1.48243,-2.5416 0.26672,-0.81935 0.29825,-1.1569 0.2946,-3.1467 -0.007,-2.64192 -0.093,-2.97813 -1.40158,-5.34067 -0.89081,-1.60833 -0.98991,-1.97589 -0.59159,-2.19377 0.32449,-0.17743 0.77373,-0.001 1.46425,0.57338 0.82879,0.69009 2.07238,1.32509 3.59825,1.83739 0.76847,0.258 1.4191,0.46913 1.44583,0.46913 0.0272,0 -0.25551,-0.40805 -0.62735,-0.90675 -1.25615,-1.6851 -2.4605,-4.04806 -2.85804,-5.60752 -0.40903,-1.60462 -0.14055,-3.76803 0.69005,-5.56037 0.21398,-0.46201 0.88399,-1.66548 1.48867,-2.67443 2.49164,-4.15734 5.06285,-10.000997 6.46177,-14.685784 1.67355,-5.604478 2.54581,-10.880789 2.67684,-16.192474 0.17763,-7.195722 -0.70222,-11.634289 -3.20947,-16.192471 -1.4146,-2.571694 -3.69939,-4.596461 -5.66916,-5.02393 -1.23218,-0.267286 -1.55036,-0.284321 -3.07946,-0.163838 -3.68247,0.289894 -6.89731,1.456221 -11.03481,4.003635 -1.89253,1.165212 -3.85657,2.491942 -3.9724,2.683377 -0.0427,0.07093 0.093,0.440912 0.30188,0.822573 0.78128,1.427978 1.33603,3.007806 1.34868,3.840663 0.0174,1.291609 -0.87499,2.847681 -2.40512,4.183454 l -0.71509,0.62427 -0.46081,-0.359209 c -0.25341,-0.197607 -0.99668,-0.984288 -1.65151,-1.748288 -3.90323,-4.553847 -7.32236,-7.238832 -13.82385,-10.855632 l -1.7696,-0.984432 -0.15247,-0.6968 c -0.084,-0.383212 -0.18762,-0.751742 -0.23064,-0.81895 -0.18158,-0.2837 -3.97353,-1.371608 -6.68618,-1.918133 -2.87503,-0.579228 -8.46839,-1.255494 -10.40446,-1.257971 l -0.58865,-7.44e-4 -0.23672,0.71213 c -0.15972,0.479936 -0.32334,0.738703 -0.50203,0.793614 -0.14578,0.0449 -1.82409,0.134111 -3.72952,0.198218 -3.50221,0.117998 -4.85657,0.270383 -7.69869,0.866463 -0.84685,0.17747 -2.019205,0.410311 -2.60522,0.517101 -0.586002,0.106856 -2.202734,0.577557 -3.592708,1.046158 -2.199093,0.741336 -4.706902,1.379908 -4.817595,1.226723 -0.09538,-0.131936 -0.984394,-2.603998 -1.102586,-3.065845 -0.187719,-0.733501 -0.168374,-1.831382 0.04104,-2.33148 0.09717,-0.231976 0.356994,-0.59518 0.577401,-0.806995 0.220414,-0.211845 0.400738,-0.428276 0.400738,-0.481051 0,-0.05266 -0.505227,-0.376553 -1.122726,-0.71947 -0.617499,-0.342918 -3.461204,-1.990544 -6.31934,-3.661337 -8.832753,-5.163426 -10.954889,-6.293268 -13.622287,-7.252613 -2.39263,-0.860515 -4.685173,-1.049226 -6.514431,-0.536244 -1.55128,0.435028 -3.221859,1.324253 -4.144171,2.205858 -1.494772,1.428844 -3.164343,4.157937 -3.878054,6.33914 -1.380945,4.220343 -0.647841,11.52053 1.645935,16.390068 0.314013,0.666633 1.386342,2.518888 2.382956,4.116122 l 1.812023,2.904084 -0.305304,0.701533 c -0.16791,0.385853 -0.748814,1.517793 -1.290873,2.515478 -0.542065,0.997685 -1.528303,2.959925 -2.191643,4.360528 -0.66334,1.400567 -1.469473,2.951375 -1.791404,3.44621 -0.899884,1.383154 -2.080695,2.423023 -4.185736,3.686102 -2.411374,1.446902 -5.640588,3.637494 -5.640588,3.826382 0,0.197286 3.378946,0.05385 4.894143,-0.207504 0.609927,-0.105394 1.2162,-0.169412 1.34727,-0.142384 0.931485,0.191734 0.944029,0.198862 0.944029,0.533249 0,0.239418 -0.324972,0.680852 -1.163032,1.579773 -1.293936,1.387897 -2.12748,2.616871 -2.677644,3.947956 -0.394122,0.953541 -0.843851,2.818748 -0.743846,3.085064 0.06078,0.161962 4.551184,2.149153 4.6319,2.049914 0.02334,-0.02783 0.343338,-0.512106 0.711222,-1.074409 0.576762,-0.881561 0.707533,-1.010225 0.949555,-0.934284 0.396213,0.124113 0.387947,0.08834 0.230901,1.009687 -0.07848,0.460538 -0.142695,1.082269 -0.142695,1.381602 0,0.525159 0.02364,0.556483 0.673633,0.891023 2.223419,1.1444 9.69376,5.68015 12.285825,7.45956 4.069335,2.79356 7.031479,5.2329 8.233158,6.78005 l 0.37847,0.48728 -0.33193,0.0852 c -0.238084,0.0612 -0.454499,-0.002 -0.765504,-0.22516 -0.238478,-0.17058 -1.614697,-1.17924 -3.058289,-2.24142 -4.127715,-3.03717 -7.179896,-4.99166 -13.309396,-8.52284 -3.601084,-2.07459 -4.234282,-2.3914 -4.234282,-2.11871 0,1.26997 0.91916,5.537 1.646326,7.64275 l 0.470816,1.3634 4.188788,1.2848 c 2.303836,0.70662 4.902143,1.56002 5.774018,1.89639 1.765604,0.68126 3.931526,1.74216 4.568602,2.23783 0.348363,0.271 0.801813,0.91856 0.801813,1.14494 0,0.0331 -1.077076,-0.38069 -2.393504,-0.91971 -2.695606,-1.10375 -5.392738,-2.06581 -7.294737,-2.60205 -0.705317,-0.19884 -2.071821,-0.58995 -3.036679,-0.86914 -0.96486,-0.27905 -1.788383,-0.50755 -1.830052,-0.50755 -0.124332,0 0.784292,1.76606 1.664254,3.23471 1.581742,2.63994 3.94863,5.62043 6.231274,7.8467 1.822617,1.77761 3.661393,3.27735 6.338667,5.16983 5.395186,3.81377 8.032982,5.44202 13.023615,8.03923 1.79957,0.93657 3.459695,1.81829 3.68917,1.9594 0.371508,0.22857 0.676752,0.79971 0.515432,0.96453 -0.109535,0.1118 -2.554971,-0.82221 -5.317964,-2.03147 -1.494492,-0.65409 -2.7718,-1.18926 -2.838468,-1.18926 -0.06668,0 -0.550326,0.28619 -1.074798,0.63609 -1.827291,1.21893 -3.830179,1.81706 -7.38751,2.20618 -1.289829,0.1412 -2.085058,0.28278 -2.085058,0.37169 0,0.27843 0.747988,1.34457 1.173386,1.67272 0.622417,0.48012 1.84763,0.97126 3.350569,1.34312 0.971171,0.24033 1.370112,0.4015 1.534916,0.62026 0.122489,0.16254 0.223958,0.34071 0.225534,0.39588 0.0063,0.21866 -0.841191,0.60493 -1.647698,0.75099 -2.475489,0.44825 -4.843815,1.67261 -6.476149,3.34794 -0.677795,0.69565 -1.49666,1.76474 -1.49666,1.95396 0,0.0412 0.481554,0.0746 1.070119,0.0746 1.240215,0 2.595851,-0.31797 3.867524,-0.90718 0.479527,-0.22208 0.892752,-0.40394 0.918275,-0.40394 0.02547,0 0.04641,0.20533 0.04641,0.45631 0,0.39302 -0.13063,0.58849 -0.942122,1.40945 -1.273691,1.2886 -1.778192,2.32934 -1.855115,3.82688 -0.07059,1.3742 0.278152,2.85623 1.034411,4.39576 0.617051,1.25618 0.307304,1.07441 3.238409,1.90039 3.035689,0.85547 4.155776,1.6355 5.036854,3.50784 0.557149,1.18394 0.270668,1.10417 2.982611,0.83038 z m 18.637244,-25.38939 c -0.22945,-0.0678 -0.417011,-0.18547 -0.417011,-0.2617 0,-0.43779 2.616381,-2.7621 3.788331,-3.36542 1.81187,-0.9327 3.95198,-0.53246 5.35641,1.00177 0.67254,0.73471 0.76742,1.16588 0.35029,1.59208 -0.45891,0.46894 -0.86867,0.34793 -1.99444,-0.58905 -1.37849,-1.14732 -2.84033,-0.87211 -5.50835,1.03698 -0.56271,0.40263 -1.05348,0.72674 -1.09064,0.72024 -0.0372,-0.006 -0.2552,-0.0672 -0.48459,-0.13473 z m -0.1861,-11.72548 c -1.49752,-0.37103 -3.026798,-1.34028 -4.007865,-2.54022 -0.516357,-0.63154 -0.634748,-0.97368 -0.910535,-2.63151 -0.247025,-1.48519 -0.579044,-2.14529 -1.294286,-2.57361 -0.502466,-0.30072 -0.626736,-0.31621 -2.290187,-0.28214 l -1.758887,0.0359 -0.749716,-0.81329 c -1.40705,-1.5264 -2.551338,-3.5701 -2.66284,-4.75584 -0.09866,-1.04919 0.36473,-1.64492 1.895378,-2.43667 l 0.705711,-0.36507 -1.154802,-0.1694 c -4.763779,-0.69926 -12.263673,-3.44363 -15.994899,-5.85285 -2.054999,-1.32688 -3.348479,-2.40791 -4.427648,-3.70035 -3.961664,-4.744642 -5.592792,-12.962569 -4.085743,-20.58478 0.994167,-5.028173 3.083245,-8.957102 6.627157,-12.463701 2.436996,-2.411355 5.099049,-4.106615 8.225692,-5.238379 0.608098,-0.220208 0.994417,-0.43227 0.994417,-0.546121 0,-0.419016 0.407863,-0.947606 0.926757,-1.20111 0.803941,-0.39272 2.428474,-0.654863 5.039725,-0.81325 2.707505,-0.164152 4.774385,-0.0793 6.98202,0.287416 4.407525,0.731797 9.421761,3.403993 12.649631,6.74121 1.48806,1.538451 1.59329,1.734749 1.33055,2.481414 l -0.19975,0.567303 0.69297,1.028099 c 1.86339,2.764524 3.00456,5.737335 3.37688,8.796897 0.20852,1.713502 0.17458,5.364793 -0.0655,7.046997 -0.4696,3.291004 -1.6685,7.395768 -2.90029,9.929658 -1.30023,2.674748 -2.81314,4.820867 -5.04665,7.158897 -2.383228,2.49474 -3.929231,3.68986 -6.49532,5.02119 -0.738629,0.38317 -1.256338,0.71027 -1.150485,0.72679 0.105919,0.0157 0.989573,0.0939 1.963812,0.17157 5.639203,0.45023 10.412113,2.09661 14.263183,4.91995 0.54448,0.39916 0.96977,0.68028 0.94509,0.62462 -0.0242,-0.0557 -0.28975,-0.58643 -0.58883,-1.17956 -0.78265,-1.55156 -1.18568,-2.89437 -1.38664,-4.61996 -0.55355,-4.75353 0.14609,-10.3402 2.00745,-16.031956 2.15385,-6.58565 4.51706,-10.614036 8.191,-13.96243 1.45876,-1.329482 3.65511,-2.84712 5.17044,-3.572758 l 1.11421,-0.533544 0.0388,-0.673671 0.0388,-0.673685 0.89817,-0.309872 c 2.16159,-0.745767 3.21024,-0.882728 6.80051,-0.888138 2.73523,-0.0026 3.5672,0.03936 4.61922,0.240649 5.6772,1.087564 10.55279,4.826452 13.45378,10.317063 l 0.62897,1.190393 -0.41134,0.433626 -0.41131,0.433625 0.31501,0.638733 c 0.17337,0.351299 0.53051,1.228538 0.79387,1.949354 2.68083,7.337764 2.93961,14.614451 0.75721,21.293461 -1.26578,3.87377 -2.87913,6.4 -5.53761,8.67089 -3.78906,3.23669 -8.27863,4.99926 -15.01864,5.89619 -2.97654,0.39612 -5.01316,0.32636 -7.88243,-0.27007 -3.39037,-0.70472 -7.3373,-2.55398 -10.0402,-4.70413 -1.32016,-1.05018 -1.3183,-1.00614 0.0343,0.81364 1.27868,1.72033 2.1125,3.43445 2.10373,4.3248 -0.009,1.0147 -0.68736,1.50999 -3.27557,2.39495 -1.96056,0.67037 -2.44319,0.63986 -3.95268,-0.24963 -1.39931,-0.82467 -2.20743,-1.13014 -2.98953,-1.13014 -0.77306,0 -1.05121,0.13004 -1.93517,0.9052 -0.4198,0.36811 -0.96534,0.72769 -1.21232,0.79909 -0.64013,0.18527 -2.88368,0.14218 -3.74676,-0.0718 z m 12.72856,-1.44049 c 1.06213,-0.2741 2.85813,-0.97423 2.98129,-1.16241 0.25368,-0.38765 0.0428,-0.88125 -1.06888,-2.50028 -3.1036,-4.52054 -5.17598,-6.34027 -9.19175,-8.0712 -2.00127,-0.86259 -4.26011,-1.51961 -6.83492,-1.9881 -2.24778,-0.40896 -6.157027,-0.4174 -7.957765,-0.0175 -1.414431,0.31437 -2.383095,0.75245 -2.72488,1.2324 -0.237265,0.3332 -0.236204,0.34743 0.08116,1.08075 0.665623,1.53799 2.359669,3.7219 2.761207,3.55967 0.988919,-0.39951 2.783244,-0.26049 3.640266,0.28213 1.305599,0.82652 1.667215,1.43549 2.037399,3.43077 0.318734,1.71823 0.571069,2.23625 1.42662,2.92884 1.190534,0.96379 2.309763,1.30845 4.275553,1.31677 l 1.30948,0.006 0.49995,-0.51087 c 0.60606,-0.61928 1.45812,-1.04694 2.31825,-1.16352 1.35048,-0.18311 3.39206,0.46198 4.71477,1.48964 0.28219,0.21927 0.59987,0.37709 0.70574,0.35053 0.10583,-0.0279 0.56776,-0.14492 1.0265,-0.26325 z m 19.72132,-2.88427 c 4.86754,-0.64664 9.04753,-1.98679 12.03577,-3.85883 4.92716,-3.0867 7.48259,-7.44664 8.5484,-14.58472 0.83141,-5.568224 -0.23036,-12.185889 -2.82425,-17.604865 -1.93112,-4.034207 -3.91973,-6.307524 -7.15712,-8.182052 -2.98707,-1.729567 -7.05789,-2.783321 -10.76681,-2.787065 -2.6194,-0.0026 -3.92709,0.30941 -6.4054,1.528255 -3.2486,1.597736 -6.0147,3.973228 -8.35319,7.173635 -1.56807,2.146024 -2.4697,3.938084 -3.77775,7.508534 -2.33858,6.383403 -3.21227,11.499508 -2.83351,16.592388 0.17427,2.34167 0.48174,3.61928 1.26106,5.23794 0.5234,1.08707 0.77217,1.42146 1.95495,2.62791 2.28932,2.33509 5.49253,4.33577 8.59258,5.36671 3.26325,1.08525 6.49343,1.41145 9.72527,0.98216 z m -8.11127,-10.01532 c -3.52682,-0.84211 -5.87552,-2.71823 -7.31733,-5.84489 -0.67422,-1.46211 -0.94099,-2.52178 -1.04234,-4.14005 -0.21884,-3.494663 1.01506,-6.805053 3.89025,-10.436727 2.73894,-3.459532 5.88374,-5.209177 9.66816,-5.379024 2.21965,-0.09975 3.71871,0.367569 5.77402,1.799419 0.81653,0.568854 2.20072,2.008666 2.81158,2.924563 1.01027,1.514716 1.8036,3.734426 2.07238,5.798315 0.17279,1.326316 -0.0528,2.852284 -0.72441,4.903674 -1.6366,4.99828 -5.22228,8.81698 -9.61277,10.23749 -1.28392,0.4154 -4.065,0.48455 -5.51954,0.13729 z m 0.18248,-12.41427 c 1.42964,-0.656043 3.10172,-2.834032 3.65651,-4.762935 0.67736,-2.354927 -0.43571,-4.528325 -2.52412,-4.928679 -0.70282,-0.134729 -2.08351,0.338899 -3.00193,1.029777 -2.80097,2.10697 -3.66134,5.655253 -1.96241,8.093289 0.7174,1.029478 2.31191,1.266058 3.83195,0.568548 z m -30.17692,8.16357 c 4.691315,-2.73534 8.76295,-7.0844 11.06695,-11.821016 2.96618,-6.097892 3.9136,-13.843766 2.36238,-19.313657 -1.21122,-4.270892 -4.83766,-8.876429 -8.941604,-11.355699 -1.98363,-1.198384 -3.647122,-1.814035 -6.547304,-2.423153 -2.703038,-0.567742 -4.246869,-0.71436 -6.648214,-0.631449 -5.000596,0.172827 -9.071926,1.584722 -12.748659,4.421599 -1.457434,1.124517 -3.629937,3.402348 -4.616806,4.840634 -2.87166,4.185258 -4.382978,10.247018 -3.932224,15.771849 0.492811,6.040297 2.40405,10.587777 5.648848,13.440582 2.556165,2.24735 5.734425,3.91837 10.871158,5.71567 2.593147,0.90733 5.178851,1.57273 7.169781,1.84499 2.036854,0.27843 2.231482,0.29546 3.663843,0.32007 l 1.225923,0.0218 z m -6.66401,-7.62303 c -5.29462,-0.885146 -9.134689,-4.433236 -10.185085,-9.410701 -0.26988,-1.278952 -0.264755,-3.798393 0.01062,-5.145235 0.398867,-1.951625 1.298479,-3.840756 2.537472,-5.328508 0.298855,-0.358825 1.063017,-1.055664 1.698158,-1.548474 3.408622,-2.644849 6.690293,-3.724489 10.649854,-3.503754 5.421626,0.302282 9.120391,3.647958 10.415421,9.421258 0.31698,1.412963 0.32605,1.556527 0.19003,3.000788 -0.23519,2.497387 -1.13118,5.07514 -2.4576,7.071024 -0.70016,1.053536 -2.135803,2.596664 -3.132515,3.36696 -1.035586,0.800386 -2.876033,1.700132 -3.98879,1.949952 -1.289925,0.28959 -4.357399,0.35739 -5.737398,0.12668 z M 86.495066,89.498499 c 1.169536,-0.351016 2.188605,-0.985915 3.135507,-1.953496 1.431211,-1.462481 2.150243,-3.151429 2.150243,-5.050753 0,-1.10699 -0.307445,-2.02195 -0.887333,-2.640732 -0.424931,-0.453422 -1.601522,-0.979787 -2.441925,-1.092399 -2.651933,-0.355401 -6.111741,2.38875 -6.919369,5.488097 -0.274211,1.052306 -0.231899,2.640399 0.08832,3.316353 0.336933,0.711225 1.371318,1.669485 2.078141,1.92525 0.7228,0.261407 1.939547,0.264817 2.796407,0.0064 z M 169.37548,93.8006 c -0.28734,-0.0409 -0.43488,-0.329322 -1.41141,-2.75737 -3.30415,-8.215516 -7.42066,-15.191147 -12.30993,-20.859811 -1.48745,-1.724566 -1.68834,-2.173706 -1.27674,-2.85425 0.40154,-0.663906 1.2306,-1.289006 2.56836,-1.936561 2.21119,-1.070315 4.96152,-1.511102 6.6547,-1.066505 2.72726,0.716094 5.8725,3.728947 7.38102,7.070315 1.98416,4.394864 2.18272,10.353745 0.56213,16.869017 -0.4803,1.930917 -1.49171,5.154929 -1.6926,5.395461 -0.0851,0.101803 -0.29915,0.164693 -0.47553,0.139628 z m 0.3519,-4.586676 c 1.1839,-4.387211 1.49219,-7.442619 1.1781,-11.676458 -0.30006,-4.044208 -2.1862,-7.936595 -4.83731,-9.982265 -0.47452,-0.366147 -1.29587,-0.883217 -1.82515,-1.149047 -0.9442,-0.474206 -0.9901,-0.483188 -2.4379,-0.475569 -2.02214,0.0092 -3.74489,0.541199 -5.56078,1.712508 l -0.49606,0.320001 0.28825,0.313654 c 0.15852,0.172514 0.34661,0.276882 0.41786,0.231981 0.0712,-0.04487 0.0933,-0.02167 0.0491,0.05115 -0.0442,0.07308 0.24006,0.509876 0.63139,0.970825 4.38789,5.167276 8.68714,12.448509 11.1574,18.896033 0.48978,1.278375 0.91939,2.325423 0.95466,2.326795 0.0352,0.0012 0.25127,-0.691314 0.4802,-1.539295 z M 62.381397,63.240919 c -1.111408,-1.135663 -2.073169,-4.346333 -2.067371,-6.90152 0.0079,-3.428987 1.534097,-6.731023 3.598582,-7.785201 1.102082,-0.562724 1.994821,-0.717861 3.647718,-0.633834 2.402649,0.122022 4.871636,0.751711 7.108721,1.812674 2.430823,1.152855 4.953829,3.117474 4.542838,3.537449 -0.06207,0.06349 -0.947972,0.325417 -1.968697,0.582235 -2.378019,0.598308 -3.626928,1.017478 -5.063647,1.699442 -2.823993,1.340481 -5.162341,3.411365 -7.206265,6.381941 -0.780613,1.134522 -1.470877,1.8132 -1.84416,1.8132 -0.138699,0 -0.475162,-0.22795 -0.747719,-0.506386 z m 1.421367,-2.345322 c 2.791365,-4.270175 7.874006,-7.548766 12.3868,-7.990172 0.633054,-0.06194 0.773421,-0.113984 0.665604,-0.246843 -0.255754,-0.314857 -3.516336,-1.875887 -4.739782,-2.269164 -1.982351,-0.637271 -3.243582,-0.854382 -5.004147,-0.861507 -1.473031,-0.0063 -1.661475,0.02168 -2.309607,0.337344 -0.965803,0.470612 -1.502274,1.054799 -2.02507,2.205268 -1.199958,2.640669 -1.18873,6.145909 0.02878,8.958842 0.1788,0.413098 0.34621,0.751121 0.372033,0.751121 0.02576,0 0.307282,-0.398264 0.625469,-0.885012 z M 49.537937,101.66678 c 0.314618,-0.35627 0.847249,-1.01237 1.183626,-1.45802 l 0.611599,-0.810284 -0.483288,-0.205645 c -0.265816,-0.112959 -1.112206,-0.492913 -1.880889,-0.84411 l -1.397604,-0.638514 0.08348,1.013764 c 0.08183,0.993724 0.442221,2.752989 0.712364,3.477399 0.171675,0.46043 0.373203,0.36838 1.170713,-0.53469 z m 104.609033,98.52644 c -0.79546,-0.2998 -1.55801,-0.96998 -1.90929,-1.67827 -1.01134,-2.03939 0.29432,-4.51147 2.62112,-4.96234 1.68882,-0.32729 3.51173,0.81337 3.86617,2.41919 0.1259,0.5704 -0.12356,1.9121 -0.49374,2.65309 -0.34131,0.68359 -1.1675,1.42951 -1.77402,1.60162 -0.63319,0.1796 -1.78922,0.16293 -2.31024,-0.0334 z m 6.95241,-10.89435 c -0.83215,-0.37956 -1.34726,-1.23134 -1.34726,-2.22795 0,-0.78151 0.74992,-1.93242 2.22897,-3.42076 1.32346,-1.33178 2.36997,-2.01252 3.86585,-2.51462 0.9289,-0.31179 1.21555,-0.34465 3.0153,-0.34554 2.91811,-0.001 4.65968,0.46711 8.21192,2.20935 2.63614,1.29295 4.55669,1.76391 7.19701,1.76492 2.7833,10e-4 5.77987,-1.64114 6.89472,-3.77853 0.98226,-1.88315 1.1398,-4.83352 0.3914,-7.32981 -1.14486,-3.81864 -4.10691,-6.92041 -7.68585,-8.04843 -0.77264,-0.24344 -1.24592,-0.30103 -2.43466,-0.29671 -0.81157,0.004 -1.84224,0.0781 -2.29037,0.16666 -1.89663,0.37492 -4.30959,1.37425 -6.71624,2.78152 -1.07614,0.62924 -1.19362,0.66816 -1.85057,0.61246 -1.04029,-0.0883 -1.38682,-0.4034 -1.43436,-1.30479 -0.0212,-0.39419 0.0174,-0.87048 0.0895,-1.05849 0.15639,-0.42038 1.77194,-1.84693 3.16938,-2.79865 2.10255,-1.43192 4.2741,-2.34403 6.52117,-2.73916 1.37234,-0.24127 3.83805,-0.27409 4.96087,-0.066 3.67884,0.68166 7.21823,3.00296 9.61484,6.30588 1.84557,2.54345 2.7857,5.07813 3.08423,8.31531 0.32615,3.53699 -0.3751,6.52178 -2.12495,9.04444 -1.32762,1.91405 -3.8881,3.61597 -6.73614,4.47748 -2.43789,0.73745 -6.90521,0.49099 -9.96031,-0.54954 -0.50291,-0.17117 -1.7443,-0.72492 -2.75871,-1.23031 -3.12294,-1.55594 -5.08225,-2.04234 -7.00007,-1.73767 -1.34697,0.21401 -1.86463,0.53604 -3.31282,2.06099 -0.70573,0.7431 -1.48519,1.47304 -1.73219,1.62203 -0.5143,0.31027 -1.2903,0.34616 -1.86053,0.0862 z M 33.834443,154.29219 c -1.069845,-0.40263 -1.546709,-1.17707 -1.471177,-2.38917 0.04092,-0.65673 0.131537,-0.94521 0.436019,-1.38787 0.93447,-1.3586 2.583424,-1.61953 3.730583,-0.59034 1.053377,0.94505 1.109784,2.43642 0.131728,3.48251 -0.810026,0.86638 -1.938112,1.21946 -2.827144,0.88487 z m -5.024062,-9.21045 c -1.395873,-0.75197 -1.924689,-2.40195 -1.413078,-4.40902 0.44854,-1.75968 1.419125,-3.20669 4.107862,-6.12437 3.720832,-4.03768 4.071287,-6.10494 1.454602,-8.58046 -1.702703,-1.61088 -3.628389,-2.23114 -5.947715,-1.91576 -1.555631,0.21153 -3.130091,0.70355 -4.626127,1.4456 -1.148104,0.5695 -1.41247,0.77083 -2.373761,1.80772 -1.016927,1.09692 -1.421532,1.70968 -3.085387,4.67297 -0.596046,1.06153 -0.960379,1.31414 -1.903531,1.31981 -1.792632,0.0103 -2.536214,-1.62161 -1.704078,-3.7409 1.063692,-2.70901 3.283275,-5.8186 5.097462,-7.14145 1.727176,-1.25939 5.001588,-2.55026 7.684514,-3.02946 2.195768,-0.39218 4.942902,-0.0441 6.851482,0.86871 1.189466,0.56874 2.657496,1.6479 3.680184,2.70532 2.270053,2.34719 3.117295,5.29199 2.375397,8.25629 -0.583106,2.32988 -1.462777,3.69948 -4.485842,6.98428 -2.136098,2.32107 -2.478564,2.86238 -2.624562,4.14853 -0.190613,1.67919 -0.504943,2.28172 -1.409287,2.7014 -0.637642,0.29609 -1.167874,0.30571 -1.678135,0.0308 z M 188.8095,140.33308 c -1.25833,-0.58405 -1.76035,-2.0394 -1.13949,-3.30343 0.254,-0.51709 1.13604,-1.26845 1.68722,-1.43719 1.18002,-0.36126 2.7294,0.64058 3.08976,1.99778 0.14191,0.53391 0.0497,1.12866 -0.27368,1.76616 -0.53677,1.05823 -2.16772,1.53184 -3.36374,0.97668 z m 0.60655,-10.37111 c -0.94919,-0.70263 -1.15422,-1.63192 -0.67446,-3.0569 0.74495,-2.21244 2.3908,-3.77432 5.91139,-5.60969 2.31272,-1.20569 3.91396,-3.10712 4.07705,-4.84145 0.11764,-1.24966 -0.55567,-2.9702 -1.54663,-3.95289 -1.36913,-1.35774 -3.88033,-1.66886 -5.78146,-0.71628 -0.62041,0.3109 -1.39256,0.91481 -3.49432,2.73314 -1.12071,0.96956 -1.55121,1.12179 -2.32198,0.821 -0.99746,-0.38925 -1.36351,-1.51682 -0.83577,-2.57457 0.65293,-1.30855 3.1161,-3.88589 4.52728,-4.73694 3.47511,-2.09589 8.25024,-1.47788 11.09367,1.43575 1.27953,1.31112 2.32875,3.66019 2.63292,5.89499 0.31689,2.32782 -0.69191,4.83911 -2.84829,7.09048 -1.01805,1.06286 -1.77235,1.58639 -3.92434,2.72385 -2.29179,1.21132 -2.99648,1.79379 -3.56438,2.94609 -0.73598,1.49332 -1.53745,2.23416 -2.41714,2.23416 -0.16815,0 -0.54317,-0.17585 -0.83354,-0.39074 z"
       id="path1"
       sodipodi:nodetypes="cssscscsssscssscssssssscssccssssscsscssssscssssscccccscsssssssccssssssssssscsssccssscsssssscssscsssscsscsscsssscsscccssssssccsssssscsssssscsscsscsscsscsscssscsscsscssssscssssccsssscsssssscsscssssssssscssscsssssscscssssssssssscscsssssssscsssssssssccccssscssssscsssccscssssscsscssssccssssssssscssssscssssscssssssssscsccsscsscssssssccccsssssssssssssscsssscsccssscssssssssssscccssssscssccssssssssscssssssssscsssssssccssscsssssccsssscccssssssscssscssssscccssssssssssscccsssscsscsssssssccscssscsscsscssssscscsscsccscscsccsscccssccsccssssssssssssssscssssssscsssscscsssssccssssscsssssscsssssssssccsssscsssssssssssscccssssssccccsscscssscssssssssscsscssssssccsccscsscccsccsccccssssssscssssccccscsscssscssccssscccssssssssscsssssssscssssssssssssscsssscsssssccccsscsssssssssscsssssscccssssssssssscssscscssccssccccscssssssccscsccssscccsccscsscccssssscccsssssssssssssccsscsssssssssccssssssscssssssscsssssssscccssssssscsssssssssssssssc" /></g></svg>
