<svg xmlns="http://www.w3.org/2000/svg"
	 xml:space="preserve"
	 width="400" height="600"
	 viewBox="0 0 190.082 211.136">
	<g style="display:inline">
		<path d="M99.96 245.9c-1.168-.21-3.666-1.943-4.519-3.133-.455-.635-1.317-2.313-1.642-3.197-.092-.253-.21-.508-.26-.568-.051-.06-.49.025-.974.187-.808.27-1.18.3-4.423.35l-3.54.055-.778-.4a8.807 8.807 0 0 0-1.696-.615c-.712-.166-1.014-.312-1.347-.652-.572-.585-.955-1.681-1.067-3.06l-.092-1.131-1.22-.172c-2.078-.294-5.335-.138-8.601.412-6.472 1.088-10.73 2.283-14.687 4.12-1.289.597-2.443.663-3.447.194-.988-.462-3.706-3.312-4.954-5.195-1.416-2.137-3.748-7.896-4.864-12.012-2.1-7.749-1.775-17.129.68-19.564.794-.788 1.1-.854 2.051-.44 1.964.852 3.567 2.149 4.946 4 2.63 3.531 4.386 7.093 5.04 10.232.144.687.282 1.325.307 1.418.027.101.578-.297 1.362-.984 3.934-3.447 7.914-5.576 12.11-6.48 1.112-.238 1.816-.3 3.45-.305 1.129-.002 2.428.042 2.887.099l.834.104.68-.916c.897-1.206 2.884-3.237 4.147-4.237.556-.44 1.01-.828 1.01-.86 0-.034-.804-.909-1.788-1.945-1.886-1.988-3.518-3.878-4.57-5.296l-.634-.852-.086.852c-.24 2.362-.375 2.988-.663 3.068a2.475 2.475 0 0 1-.358.077c-.196.004-.224-.999-.114-4.15.065-1.858.093-3.403.062-3.435-.048-.049-1.766.279-2.387.455-.346.099-1.308 3.36-1.852 6.28-.12.649-.263 1.23-.317 1.291-.054.061-.217.073-.364.025-.628-.204-.671-2.41-.104-5.282.16-.812.28-1.475.266-1.475-.014 0-.477.197-1.029.437-.915.4-1.012.478-1.098.885a342.71 342.71 0 0 0-.812 4.774c-.7 4.223-1.328 7.697-1.405 7.775-.02.022-.187.001-.37-.046l-.332-.085.028-2.97.028-2.969-1.09-.548c-.6-.301-1.132-.552-1.182-.557-.135-.012-.658 1.805-1.194 4.154-.347 1.517-.542 2.127-.737 2.3-.464.41-.544.105-.542-2.045.002-1.746.047-2.176.365-3.472.2-.814.335-1.554.3-1.646-.053-.142-1.39-.612-1.74-.612-.273 0-1.018 2.295-1.688 5.198-.378 1.637-.415 1.727-.743 1.792-.19.037-.374.038-.41.002-.12-.122-.033-2.726.126-3.78.087-.577.347-1.639.579-2.36.232-.721.405-1.33.385-1.352-.074-.084-1.42-.415-1.69-.416a.74.74 0 0 0-.465.188c-.102.104-.392 1.054-.644 2.11-.4 1.674-1.093 3.6-1.296 3.6-.037 0-.163-.187-.278-.416-.176-.348-.197-.658-.126-1.869.346-5.85 1.373-9.933 4.474-17.788 5.136-13.01 5.877-14.622 8.729-18.998 2.143-3.288 3.024-4.291 4.301-4.896.59-.279.618-.314.443-.553-1.259-1.713-1.721-4.691-1.038-6.68.174-.504.356-1.008.404-1.119.077-.175-.076-.195-1.191-.149-1.113.046-1.354.016-1.85-.23-.773-.382-1.04-.925-.776-1.577.599-1.473 1.992-3.145 3.486-4.182.443-.307 1.355-.83 2.027-1.162l1.222-.604-.804-.438c-.884-.483-1.643-1.167-2.099-1.892-.352-.56-.703-1.704-.703-2.29 0-.746.774-1.058 3.078-1.244 2.11-.17 3.56-.429 4.815-.857.972-.332 2.757-1.171 2.757-1.296 0-.032-.418-.307-.93-.611-3.26-1.938-9.37-6.216-11.644-8.154-1.81-1.541-4.763-4.58-6.076-6.252-1.447-1.84-3.329-4.842-4.303-6.86l-.916-1.902-1.378-.336c-5.131-1.253-9.662-1.908-15.043-2.178-2.427-.122-2.938-.183-3.207-.381-.177-.13-.34-.329-.361-.442-.061-.32.828-.404 4.21-.398 4.36.006 8.052.466 12.589 1.564 1.086.263 2.128.506 2.316.54l.342.062-.432-1.39c-.713-2.296-1.103-4.309-1.194-6.17l-.084-1.7-.7.913c-1.61 2.102-2.551 2.945-3.286 2.945-.569 0-1.224-.589-1.569-1.409-.313-.745-.742-2.95-.87-4.473l-.09-1.097-.72-.326c-3.52-1.593-8.5-3.32-14.118-4.897-1.794-.504-3.408-.988-3.588-1.076-.358-.176-.77-.811-.622-.961.05-.052.51-.09 1.023-.086 2.073.018 10.157 2.428 15.779 4.7 1.321.535 2.433.972 2.47.972.037 0 .068-.082.068-.182 0-.444.7-2.601 1.162-3.582.28-.592.788-1.454 1.13-1.916.342-.462.658-.9.702-.973.053-.088-.71-.127-2.259-.116-1.953.012-2.449-.021-3.003-.22-.365-.13-.732-.321-.816-.425-.251-.308-.025-1.074.488-1.655.505-.571 4.569-3.4 6.76-4.707.737-.439 1.602-1.034 1.922-1.322.839-.754 1.857-2.396 3.01-4.85 1.11-2.365 2-3.975 3.055-5.527l.694-1.023-.944-1.026c-2.813-3.056-4.748-7.325-5.631-12.425-.398-2.298-.434-7.104-.065-8.825.595-2.782 2.02-5.621 4.067-8.106 1.218-1.479 2.777-2.487 5.16-3.337 1.149-.41 1.247-.422 3.301-.422 1.919 0 2.236.034 3.385.362 2.685.765 6.18 2.49 11.628 5.735 3.648 2.174 8.013 4.858 10.165 6.25l1.504.974 1.107-.668c4.382-2.645 10.025-4.681 16.152-5.83l1.79-.336.54.54c1.023 1.027 1.403 2.044 1.88 5.035l.294 1.835 1.408.1c6.464.46 11.12 1.306 15.51 2.82 1.19.412 1.415.455 1.51.29 1.16-2.022 1.719-2.813 2.736-3.87.907-.94 1.365-1.304 2.132-1.69l.976-.49.812.418c1.226.633 4.414 2.86 5.598 3.912 1.384 1.23 2.967 3.175 4.55 5.59.709 1.082 1.335 1.985 1.391 2.006.056.021.816-.458 1.688-1.065 5.502-3.829 10.224-5.595 14.957-5.595 1.935 0 2.835.178 4.068.802 1.812.92 3.168 2.201 4.447 4.204 2.079 3.256 3.411 7.138 3.84 11.186.237 2.249.312 7.502.14 9.817-.227 3.026-1.028 7.684-1.952 11.35-1.422 5.636-4.006 11.698-7.494 17.577-1.462 2.464-2.096 3.83-2.276 4.9-.131.786-.117.954.154 1.818.55 1.752 1.507 3.425 3.107 5.431.412.516.808 1.096.879 1.287.216.581.156 1.222-.144 1.528-.244.25-.366.27-1.123.197-.918-.09-1.43-.233-3.062-.854-.583-.221-1.059-.389-1.059-.373 0 .016.11.325.243.685.407 1.095.566 2.587.474 4.423-.17 3.356-1.107 5.45-2.881 6.437-.586.327-.703.349-1.166.221-.72-.198-1.303-.868-2.038-2.345-.759-1.524-1-2.175-1.225-3.294l-.17-.853-.766 1.64c-1.141 2.444-2.625 4.835-3.797 6.117-.366.401-.384.7-.041.7.26 0 4.667 1.25 7.004 1.986 3.989 1.256 6.684 2.335 9.848 3.945 1.818.925 1.829.933 1.829 1.378 0 .436-.012.445-.417.358-.782-.168-1.955-.606-4.01-1.498-3.068-1.33-9.34-3.402-14.106-4.658l-1.788-.47-.65.64c-1.846 1.82-4.415 3.547-7.798 5.245-1.391.698-2.528 1.298-2.527 1.334.001.036.562.479 1.246.984 2.173 1.604 3.765 2.97 5.382 4.615 1.339 1.363 1.572 1.66 1.572 2.008 0 .364-.033.399-.29.318-.593-.188-1.387-.755-2.819-2.016-1.562-1.375-5.372-4.516-6.135-5.06l-.455-.322-.978.385c-8.877 3.492-17.827 3.725-21.594 3.637-4.584-.107-7.095-.431-12.542-1.62-.341-.074-.35-.062-.272.365.181.982 1.078 3.537 1.652 4.707.335.683.978 1.842 1.427 2.575.51.83.817 1.472.817 1.704-.001.802-.755 1.497-2.197 2.027-.468.172-.866.342-.884.378-.018.036.04.594.13 1.24.202 1.455.1 4.408-.191 5.512-.523 1.985-.88 2.697-2.036 4.051l-.623.731.206 1.543c.33 2.473 1.105 5.067 1.968 6.59.184.324.75 1.032 1.256 1.573.507.541 1.17 1.367 1.474 1.836.904 1.396 1.868 2.557 2.542 3.063.484.363 1.315.704 3.528 1.448 3.262 1.095 4.225 1.562 5.68 2.754 2.17 1.777 3.963 3.94 5.606 6.764 3.648 6.27 5.327 10.553 5.923 15.106.629 4.798.593 8.99-.109 12.723-.159.847-.247 1.54-.196 1.54.052 0 .807-.288 1.68-.64 4.765-1.927 9.199-3.126 13.967-3.778 2.412-.33 8.22-.325 10.522.006 4.785.691 8.547 1.613 13.77 3.373 2.097.706 4.302 1.263 5.924 1.496 1.76.253 1.82 1.133.13 1.9-.626.284-.634.294-.32.427 2.9 1.232 4.784 2.518 9.46 6.463.225.19.336.442.384.876.067.607.065.61-.366.69-.594.11-.902.11-3.256 0-2.189-.102-6.312.035-13.793.46-15.146.86-17.93.964-21.45.794-4.292-.208-9.754-.985-14.862-2.114-3.497-.774-4.35-.929-4.623-.84-.134.043-.7.68-1.256 1.416-2.47 3.261-5.623 5.705-8.877 6.878-1.929.695-3.048.877-5.39.877-1.878 0-2.272-.04-3.506-.358-.764-.197-1.432-.358-1.485-.358-.052 0-.367.406-.698.902-1.713 2.561-4.306 4.356-6.243 4.322-.459-.01-.978-.04-1.155-.073zm15.012-6.086c1.108-.161 3.606-.967 4.627-1.491 3.882-1.996 7.23-5.697 8.657-9.569.665-1.804 1.483-5.608 1.806-8.392.285-2.457.286-7.768.001-9.9-.583-4.373-1.322-6.728-3.475-11.078-2.502-5.055-4.005-7.402-6.076-9.488-2.043-2.058-2.985-2.63-6.198-3.759-1.156-.406-2.59-.997-3.186-1.313-.597-.316-1.097-.562-1.112-.546-.015.016.03.53.101 1.142.227 1.95-.096 7.892-.675 12.447a88.722 88.722 0 0 1-1.15 6.755c-.137.646-.25 1.273-.25 1.395 0 .177.857.788 1.938 1.38.042.021.31-.134.594-.348.63-.473 1.81-.937 3.16-1.242 1.493-.338 3.4-.223 4.78.287 2.166.801 4.257 2.3 5.413 3.878.748 1.023 1.54 2.527 1.405 2.666-.232.237-.862-.218-2.176-1.572-1.963-2.022-3.777-3.212-5.646-3.702-1.57-.413-4.077-.058-5.767.815l-.597.31.436.822c.558 1.053 1.14 2.89 1.34 4.233.21 1.404.208 4.106-.002 6.78-.21 2.652-.185 2.8.952 5.455 1.088 2.54 1.23 3.101 1.323 5.259.135 3.115-.627 6.27-2.011 8.325-.216.32-.392.608-.392.64 0 .074.935-.006 2.181-.189zm-13.006-2.134c.873-.415 1.545-1.054 2.33-2.215 1.592-2.352 2.523-6.094 2.085-8.37-.395-2.055-1.67-3.357-3.163-3.23-.791.067-1.654.659-2.966 2.035-.958 1.005-1.46 1.999-1.907 3.77-.96 3.81-.195 7.389 1.746 8.18.534.218 1.184.16 1.875-.17zm-20.175-2.708c.58-2.266 1.539-3.075 5.042-4.258 1.885-.637 2.148-.769 2.663-1.336.715-.788 1.172-2.316 1.916-6.412.406-2.233 1.233-7.048 1.233-7.176 0-.11 1.263-.386 2.113-.462l.894-.08.842-1.542c1.156-2.118 2.237-3.644 3.521-4.971 1.207-1.247 2.064-1.88 3.216-2.375.737-.317 2.468-.748 3.001-.748.316 0 .309.025.775-2.754.756-4.5 1.164-8.185 1.43-12.914.26-4.643-.154-7.168-1.548-9.424-1.115-1.802-2.471-2.602-4.414-2.602-1.661 0-2.583.615-3.6 2.403-.797 1.398-1.729 2.206-1.536 1.33.384-1.74.9-2.87 1.716-3.75 1.083-1.171 2.705-1.786 4.203-1.595.373.048.679.061.679.03 0-.03-.175-.488-.388-1.016-.546-1.355-.991-3.115-1.183-4.678l-.164-1.34-1.923 1.19c-5.765 3.569-11.583 5.62-17.496 6.17-.892.082-1.635.159-1.652.17-.117.076-1.357 6.961-1.462 8.12-.072.8-.141 3.768-.154 6.597-.021 5.079-.025 5.144-.278 5.065-.405-.126-.602-.337-.846-.9-.285-.663-.69-2.316-.897-3.655l-.158-1.033-1.23.093c-.677.05-1.255.117-1.286.148-.12.124.395 2.118.745 2.882.428.935 1.3 1.998 4.153 5.064 2.275 2.445 3.184 3.205 5.421 4.53.847.501 1.727 1.029 1.956 1.172l.416.26-.322.31-.322.31-.672-.246c-.369-.135-1.324-.56-2.122-.943-.798-.384-1.524-.698-1.613-.698-.259 0-2.662 2.245-3.678 3.435-1.89 2.215-3.146 4.6-3.597 6.832-.171.848-.244 1.756-.245 3.06-.003 3.508.76 6.126 2.442 8.367.654.873 1.234 1.994 1.101 2.13-.238.244-2.068-1.342-2.802-2.429-.628-.93-1.47-2.897-1.748-4.088-.798-3.407-.648-6.624.44-9.47.24-.63.437-1.184.437-1.233 0-.157-4.64.07-5.838.284-3.273.587-7.246 2.496-10.486 5.038-1.331 1.044-3.308 2.855-3.308 3.031 0 .222.192.127 1.609-.794 2.302-1.497 2.058-1.42 2.653-.833 1.122 1.106 2.508 3.483 3.12 5.349.932 2.845 1.128 6.354.511 9.163-.264 1.204-.304 1.58-.189 1.8.1.192.232.259.423.216 2.008-.45 6.36-1.31 7.44-1.47 2.918-.433 6.106-.481 8.625-.13l.647.09.473-.73c.74-1.137 1.887-2.266 2.475-2.433.278-.08 1.397-.396 2.487-.704l1.98-.56.297-1.11c1.463-5.487 2.513-11.082 4.407-23.466.923-6.037 2.072-12.78 2.327-13.655.164-.562.683-1.27.825-1.126.09.091-.003 1.103-.329 3.57-.066.505-.268 2.098-.448 3.54-.18 1.443-.764 5.69-1.297 9.44-1.715 12.072-2.83 17.987-4.253 22.552-.433 1.39-.39 1.358-2.875 2.102-2.697.809-3.595 1.393-4.343 2.826-.457.876-.64 2.1-.46 3.075.113.618.23.477.508-.604zm-29.984-.992c.588-.822.82-3.247.494-5.161-.267-1.57-1.223-4.517-1.819-5.605-.582-1.064-1.783-2.376-2.582-2.82-.767-.426-1.757-.665-2.316-.558-.522.1-1.222.716-1.639 1.442l-.317.553.567 1.69c.687 2.05 1.121 3.176 2.076 5.383 1.432 3.313 2.746 5.168 3.815 5.39.689.141 1.5-.007 1.72-.314zm-8.334-16.17c-.22-1.862-.213-8.516.01-10.554.166-1.517.525-3.017.966-4.04.21-.485.208-.495-.078-.605-.834-.318-.844-.317-1.102.208-.366.744-.747 1.949-1.009 3.192-.19.902-.233 1.705-.233 4.32 0 1.845.072 3.799.168 4.59.192 1.586.722 4.386.934 4.935l.145.375.18-.52c.153-.436.156-.736.019-1.9zm20.687-18.86c0-.06.087-.782.193-1.607.903-7.011 1.953-10.21 7.145-21.756a4601.86 4601.86 0 0 0 3.91-8.712c.319-.717.76-1.587.983-1.934.39-.609.425-.63 1.023-.63h.618l-.231-.408c-.488-.859-1.784-1.779-3.218-2.285-1.081-.381-4.179-1.11-4.719-1.11-.517 0-1.3.575-1.978 1.452-2.532 3.274-5.487 8.608-7.076 12.775-.358.937-1.317 3.327-2.13 5.31-1.817 4.426-2.919 7.29-3.631 9.44-.566 1.705-1.682 6.03-1.595 6.176.028.045.47.124.984.174 2.434.239 6.297 1.485 8.888 2.867.695.37.834.412.834.247zm4-7.682c1.958-.885 5.467-1.585 8.373-1.671 1.609-.048 1.485.096 1.486-1.734.002-2.556.218-4.381.9-7.592.35-1.658.639-3.115.639-3.239 0-.203-.281-.233-2.887-.315-1.587-.05-3.16-.053-3.496-.01l-.61.083-.44 1.069c-.242.588-1.058 2.514-1.812 4.28-1.724 4.036-2.48 6.073-2.877 7.746-.29 1.226-.31 1.695-.07 1.695.054 0 .411-.142.794-.314zm16.09-16.607c1.477-.22 3.014-.487 3.416-.592 1.539-.4 4.469-1.426 6.042-2.114 1.6-.7 5.215-2.66 7.406-4.015 2.507-1.55 3.685-3.622 3.926-6.907.085-1.17-.1-3.191-.368-4.023-.137-.423-.227-.504-.671-.596a17.35 17.35 0 0 1-1.509-.442l-.996-.337-1.185 1.143c-3.815 3.675-6.277 5.415-9.569 6.761-3.678 1.505-6.86 2.098-11.263 2.1h-1.94l-.65 1.467c-.357.806-1.232 2.794-1.943 4.416-.71 1.623-1.35 3.053-1.42 3.178-.07.125-.127.258-.127.295 0 .037 1.837.067 4.083.067 3.884 0 4.214-.018 6.768-.401zm-2.511-10.543c4.159-.42 7.171-1.238 10.158-2.757 2.127-1.083 3.833-2.333 6.779-4.971.882-.79 1.63-1.456 1.66-1.481.032-.025-.262-.383-.653-.795-.753-.795-1.264-1.488-1.264-1.715 0-.239 1.118.188 1.964.75 1.899 1.259 3.945 1.95 5.35 1.804.759-.079 1.925-.44 1.925-.595 0-.053-.322-.593-.716-1.2-1.454-2.248-2.449-4.785-2.833-7.225-.214-1.363-.218-1.372-.74-1.756l-.523-.385.79-.039c.435-.022 1.994.14 3.465.356 10.66 1.574 18.652 1.299 26.732-.92 1.82-.5 5.133-1.606 5.133-1.713 0-.228-4.598-2.381-7.935-3.716-1.084-.434-1.645-.731-1.781-.943-.11-.17-.162-.347-.118-.393.124-.126 3.454.796 5.304 1.469.904.329 2.724 1.138 4.046 1.799l2.403 1.2 2.28-1.15c1.254-.632 3.005-1.59 3.89-2.129 1.825-1.11 4.18-2.907 4.017-3.065-.177-.172-3.44-.89-5.638-1.24-3.614-.577-7.01-.926-13.434-1.38-3.752-.266-4.32-.375-4.502-.86a1.245 1.245 0 0 1-.08-.333c0-.158 3.495-.155 5.814.006 1.001.07 2.802.19 4.002.269 4.112.268 9.215.92 12.936 1.655l2.415.476.516-.509c1.448-1.43 3.184-3.99 4.436-6.54.968-1.973 1.42-2.687 1.909-3.013.327-.22.36-.22.508-.012.087.122.397.96.687 1.863.55 1.704 1.496 3.845 2.19 4.95l.402.64.448-.444c.643-.637 1.14-1.488 1.483-2.542.266-.82.298-1.157.294-3.146-.007-2.642-.093-2.979-1.401-5.341-.891-1.608-.99-1.976-.592-2.194.325-.177.774 0 1.464.573.83.69 2.073 1.326 3.599 1.838.768.258 1.419.469 1.445.469.028 0-.255-.408-.627-.907-1.256-1.685-2.46-4.048-2.858-5.607-.41-1.605-.14-3.768.69-5.56.214-.463.884-1.666 1.489-2.675 2.491-4.157 5.063-10.001 6.461-14.686 1.674-5.604 2.546-10.88 2.677-16.192.178-7.196-.702-11.635-3.21-16.193-1.414-2.572-3.699-4.596-5.668-5.024-1.233-.267-1.55-.284-3.08-.164-3.682.29-6.897 1.457-11.035 4.004-1.892 1.165-3.856 2.492-3.972 2.683-.043.071.093.441.302.823.781 1.428 1.336 3.008 1.349 3.84.017 1.292-.875 2.848-2.406 4.184l-.715.624-.46-.359c-.254-.197-.997-.984-1.652-1.748-3.903-4.554-7.322-7.239-13.824-10.856l-1.77-.984-.152-.697c-.084-.383-.188-.752-.23-.819-.182-.284-3.974-1.372-6.687-1.918-2.875-.58-8.468-1.256-10.404-1.258h-.589l-.237.711c-.16.48-.323.739-.502.794-.145.045-1.824.134-3.73.198-3.501.118-4.856.27-7.698.867-.847.177-2.019.41-2.605.517-.586.107-2.203.577-3.593 1.046-2.199.741-4.707 1.38-4.817 1.227-.096-.132-.985-2.604-1.103-3.066-.188-.734-.168-1.832.041-2.332.097-.232.357-.595.578-.807.22-.212.4-.428.4-.48 0-.053-.505-.377-1.122-.72-.618-.343-3.462-1.99-6.32-3.662-8.833-5.163-10.955-6.293-13.622-7.252-2.393-.86-4.685-1.05-6.514-.536-1.552.435-3.222 1.324-4.145 2.205-1.494 1.43-3.164 4.158-3.878 6.34-1.38 4.22-.648 11.52 1.646 16.39.314.666 1.387 2.519 2.383 4.116l1.812 2.904-.305.701c-.168.386-.749 1.518-1.291 2.516a108.95 108.95 0 0 0-2.192 4.36c-.663 1.401-1.47 2.952-1.791 3.447-.9 1.383-2.08 2.423-4.186 3.686-2.411 1.447-5.64 3.637-5.64 3.826 0 .197 3.379.054 4.894-.207.61-.106 1.216-.17 1.347-.143.932.192.944.2.944.533 0 .24-.325.681-1.163 1.58-1.294 1.388-2.127 2.617-2.678 3.948-.394.954-.843 2.819-.743 3.085.06.162 4.55 2.15 4.631 2.05.024-.028.344-.512.712-1.074.576-.882.707-1.01.95-.935.395.125.387.089.23 1.01-.078.46-.143 1.082-.143 1.382 0 .525.024.556.674.89 2.224 1.145 9.694 5.68 12.286 7.46 4.07 2.794 7.031 5.233 8.233 6.78l.379.488-.332.085c-.238.061-.455-.002-.766-.225-.238-.17-1.615-1.18-3.058-2.242-4.128-3.037-7.18-4.991-13.31-8.523-3.6-2.074-4.234-2.391-4.234-2.118 0 1.27.92 5.537 1.646 7.642l.471 1.364 4.19 1.285c2.303.706 4.901 1.56 5.773 1.896 1.766.681 3.932 1.742 4.569 2.238.348.27.801.918.801 1.145 0 .033-1.077-.38-2.393-.92-2.696-1.104-5.393-2.066-7.295-2.602-.705-.199-2.072-.59-3.036-.87-.965-.278-1.789-.507-1.83-.507-.125 0 .784 1.766 1.664 3.235 1.582 2.64 3.948 5.62 6.231 7.847 1.823 1.777 3.661 3.277 6.339 5.17 5.395 3.813 8.033 5.442 13.023 8.039 1.8.936 3.46 1.818 3.69 1.96.371.228.676.799.515.964-.11.112-2.555-.822-5.318-2.032-1.495-.654-2.772-1.189-2.838-1.189-.067 0-.55.286-1.075.636-1.828 1.22-3.83 1.817-7.388 2.206-1.29.142-2.085.283-2.085.372 0 .278.748 1.345 1.174 1.673.622.48 1.847.971 3.35 1.343.971.24 1.37.401 1.535.62.123.163.224.34.226.396.006.219-.842.605-1.648.751-2.476.448-4.844 1.673-6.476 3.348-.678.696-1.497 1.765-1.497 1.954 0 .041.482.074 1.07.074 1.24 0 2.596-.317 3.868-.907.48-.222.892-.404.918-.404.025 0 .046.206.046.457 0 .393-.13.588-.942 1.41-1.273 1.288-1.778 2.328-1.855 3.826-.07 1.374.278 2.856 1.035 4.396.617 1.256.307 1.074 3.238 1.9 3.036.856 4.156 1.636 5.037 3.508.557 1.184.27 1.104 2.982.83zm18.637-25.39c-.23-.067-.417-.185-.417-.261 0-.438 2.616-2.762 3.788-3.366 1.812-.932 3.952-.532 5.357 1.002.672.735.767 1.166.35 1.592-.459.47-.869.348-1.994-.589-1.379-1.147-2.84-.872-5.509 1.037-.562.403-1.053.727-1.09.72a9.836 9.836 0 0 1-.485-.134zm-.186-11.725c-1.498-.371-3.027-1.34-4.008-2.54-.516-.632-.635-.974-.91-2.632-.247-1.485-.58-2.145-1.295-2.573-.502-.301-.626-.317-2.29-.283l-1.759.036-.75-.813c-1.407-1.526-2.55-3.57-2.662-4.756-.099-1.049.364-1.645 1.895-2.436l.706-.366-1.155-.169c-4.764-.7-12.264-3.444-15.995-5.853-2.055-1.327-3.348-2.408-4.428-3.7-3.961-4.745-5.592-12.963-4.085-20.585.994-5.028 3.083-8.957 6.627-12.464 2.437-2.411 5.099-4.106 8.226-5.238.608-.22.994-.432.994-.546 0-.42.408-.948.927-1.201.804-.393 2.428-.655 5.04-.813 2.707-.165 4.774-.08 6.981.287 4.408.732 9.422 3.404 12.65 6.741 1.488 1.539 1.593 1.735 1.33 2.482l-.2.567.694 1.028c1.863 2.764 3.004 5.737 3.377 8.797.208 1.713.174 5.365-.066 7.047-.47 3.29-1.668 7.396-2.9 9.93-1.3 2.674-2.813 4.82-5.047 7.158-2.383 2.495-3.929 3.69-6.495 5.022-.739.383-1.256.71-1.15.726.105.016.99.094 1.963.172 5.64.45 10.412 2.097 14.263 4.92.545.4.97.68.946.625-.025-.056-.29-.587-.59-1.18-.782-1.552-1.185-2.894-1.386-4.62-.553-4.754.146-10.34 2.008-16.032 2.153-6.586 4.517-10.614 8.19-13.962 1.46-1.33 3.656-2.847 5.171-3.573l1.114-.534.039-.673.039-.674.898-.31c2.162-.746 3.21-.883 6.8-.888 2.736-.003 3.568.04 4.62.24 5.677 1.088 10.552 4.827 13.453 10.318l.63 1.19-.412.434-.411.433.315.639c.173.351.53 1.229.794 1.95 2.68 7.337 2.94 14.614.757 21.293-1.266 3.874-2.88 6.4-5.538 8.67-3.789 3.237-8.278 5-15.018 5.897-2.977.396-5.014.326-7.883-.27-3.39-.705-7.337-2.554-10.04-4.704-1.32-1.05-1.318-1.006.034.813 1.279 1.72 2.113 3.435 2.104 4.325-.009 1.015-.687 1.51-3.276 2.395-1.96.67-2.443.64-3.952-.25-1.4-.824-2.208-1.13-2.99-1.13-.773 0-1.05.13-1.935.906-.42.368-.965.727-1.212.799-.64.185-2.884.142-3.747-.072zm12.729-1.44c1.062-.275 2.858-.975 2.98-1.163.255-.388.044-.881-1.068-2.5-3.104-4.52-5.176-6.34-9.192-8.071-2.001-.863-4.26-1.52-6.835-1.989-2.247-.409-6.157-.417-7.957-.017-1.415.314-2.384.752-2.725 1.232-.238.334-.237.348.08 1.081.666 1.538 2.36 3.722 2.762 3.56.989-.4 2.783-.26 3.64.282 1.306.826 1.668 1.435 2.038 3.43.318 1.719.57 2.237 1.426 2.93 1.19.963 2.31 1.308 4.276 1.316l1.31.006.5-.51a4.087 4.087 0 0 1 2.318-1.164c1.35-.183 3.392.462 4.714 1.49.283.219.6.377.706.35l1.027-.263zm19.72-2.885c4.868-.646 9.048-1.987 12.037-3.859 4.927-3.086 7.482-7.446 8.548-14.584.831-5.569-.23-12.186-2.824-17.605-1.931-4.034-3.92-6.308-7.157-8.182-2.987-1.73-7.058-2.784-10.767-2.787-2.62-.003-3.927.309-6.406 1.528-3.248 1.598-6.014 3.973-8.353 7.174-1.568 2.146-2.47 3.938-3.777 7.508-2.339 6.383-3.213 11.5-2.834 16.592.174 2.342.482 3.62 1.261 5.238.523 1.087.772 1.422 1.955 2.628 2.29 2.335 5.493 4.336 8.593 5.367 3.263 1.085 6.493 1.411 9.725.982zm-8.11-10.015c-3.527-.842-5.876-2.718-7.318-5.845-.674-1.462-.94-2.522-1.042-4.14-.219-3.495 1.015-6.805 3.89-10.437 2.74-3.46 5.884-5.209 9.668-5.379 2.22-.1 3.72.368 5.774 1.8.817.568 2.201 2.008 2.812 2.924 1.01 1.515 1.804 3.735 2.072 5.798.173 1.327-.052 2.853-.724 4.904-1.637 4.998-5.222 8.817-9.613 10.238-1.284.415-4.065.484-5.52.137zm.182-12.414c1.43-.656 3.102-2.834 3.657-4.763.677-2.355-.436-4.529-2.525-4.93-.702-.134-2.083.34-3.001 1.03-2.801 2.108-3.662 5.656-1.963 8.094.718 1.03 2.312 1.266 3.832.569zm-30.177 8.163c4.691-2.735 8.763-7.084 11.067-11.82 2.966-6.099 3.914-13.845 2.363-19.315-1.212-4.27-4.838-8.876-8.942-11.355-1.984-1.199-3.647-1.814-6.547-2.423-2.703-.568-4.247-.715-6.649-.632-5 .173-9.072 1.585-12.748 4.422-1.458 1.124-3.63 3.402-4.617 4.84-2.872 4.186-4.383 10.247-3.932 15.772.493 6.04 2.404 10.588 5.649 13.44 2.556 2.248 5.734 3.92 10.87 5.716 2.594.908 5.18 1.573 7.17 1.845 2.037.279 2.232.296 3.664.32l1.226.022zm-6.664-7.623c-5.294-.885-9.135-4.433-10.185-9.41-.27-1.28-.265-3.799.01-5.146.4-1.951 1.3-3.84 2.538-5.328.299-.36 1.063-1.056 1.698-1.549 3.409-2.645 6.69-3.724 10.65-3.504 5.422.303 9.12 3.648 10.416 9.422.317 1.413.326 1.556.19 3-.236 2.498-1.132 5.076-2.458 7.071-.7 1.054-2.136 2.597-3.132 3.367-1.036.8-2.877 1.7-3.99 1.95-1.29.29-4.357.358-5.737.127zM86.495 89.5c1.17-.352 2.189-.986 3.136-1.954 1.43-1.462 2.15-3.151 2.15-5.05 0-1.108-.308-2.023-.888-2.641-.424-.454-1.601-.98-2.441-1.093-2.652-.355-6.112 2.389-6.92 5.488-.274 1.053-.232 2.64.089 3.317.336.71 1.37 1.67 2.078 1.925.722.261 1.94.265 2.796.006zm82.88 4.302c-.287-.041-.434-.33-1.41-2.758-3.305-8.215-7.422-15.19-12.31-20.86-1.488-1.724-1.69-2.173-1.278-2.854.402-.664 1.231-1.289 2.569-1.936 2.211-1.07 4.961-1.511 6.654-1.067 2.728.716 5.873 3.73 7.381 7.07 1.985 4.395 2.183 10.354.563 16.87-.48 1.93-1.492 5.154-1.693 5.395-.085.102-.3.165-.476.14zm.352-4.587c1.184-4.387 1.493-7.443 1.178-11.677-.3-4.044-2.186-7.936-4.837-9.982a13.614 13.614 0 0 0-1.825-1.149c-.944-.474-.99-.483-2.438-.475-2.022.009-3.745.54-5.56 1.712l-.497.32.289.314c.158.172.346.277.417.232.072-.045.094-.022.05.05-.045.074.24.51.63.972 4.389 5.167 8.688 12.448 11.158 18.896.49 1.278.92 2.325.955 2.327.035 0 .251-.692.48-1.54zM62.381 63.24c-1.111-1.136-2.073-4.346-2.067-6.902.008-3.429 1.534-6.73 3.599-7.785 1.102-.563 1.994-.718 3.647-.634 2.403.122 4.872.752 7.109 1.813 2.43 1.153 4.954 3.118 4.543 3.537-.062.064-.948.326-1.969.583-2.378.598-3.627 1.017-5.063 1.7-2.824 1.34-5.163 3.41-7.207 6.381-.78 1.135-1.47 1.813-1.844 1.813-.139 0-.475-.228-.748-.506zm1.422-2.345c2.791-4.27 7.874-7.55 12.387-7.99.633-.063.773-.115.665-.247-.256-.315-3.516-1.876-4.74-2.27-1.982-.637-3.243-.854-5.004-.861-1.473-.006-1.661.022-2.31.337-.965.47-1.502 1.055-2.024 2.206-1.2 2.64-1.19 6.145.028 8.958.18.413.347.751.372.751.026 0 .308-.398.626-.885zm-14.265 40.77c.315-.355.847-1.012 1.184-1.457l.611-.81-.483-.206c-.266-.113-1.112-.493-1.881-.844l-1.398-.639.084 1.014c.082.994.442 2.753.712 3.477.172.46.373.369 1.17-.534zm104.609 98.527c-.795-.3-1.558-.97-1.91-1.678-1.01-2.04.295-4.512 2.622-4.962 1.689-.328 3.512.813 3.866 2.419.126.57-.124 1.912-.494 2.653-.341.683-1.167 1.43-1.774 1.602-.633.18-1.789.162-2.31-.034zm6.952-10.894c-.832-.38-1.347-1.231-1.347-2.228 0-.782.75-1.932 2.23-3.42 1.323-1.333 2.37-2.013 3.865-2.515.929-.312 1.215-.345 3.015-.346 2.918-.001 4.66.467 8.212 2.21 2.636 1.292 4.557 1.763 7.197 1.764 2.783.001 5.78-1.64 6.895-3.778.982-1.883 1.14-4.834.391-7.33-1.145-3.819-4.107-6.92-7.686-8.049-.772-.243-1.245-.3-2.434-.296-.812.004-1.842.078-2.29.166-1.897.375-4.31 1.375-6.717 2.782-1.076.63-1.193.668-1.85.612-1.04-.088-1.387-.403-1.435-1.304-.021-.395.018-.87.09-1.059.156-.42 1.772-1.847 3.17-2.799 2.102-1.431 4.273-2.344 6.52-2.739 1.373-.24 3.838-.274 4.961-.066 3.679.682 7.218 3.003 9.615 6.306 1.846 2.544 2.786 5.078 3.084 8.316.326 3.537-.375 6.521-2.125 9.044-1.327 1.914-3.888 3.616-6.736 4.477-2.438.738-6.905.491-9.96-.55-.503-.17-1.744-.724-2.759-1.23-3.123-1.555-5.082-2.042-7-1.737-1.347.214-1.865.536-3.313 2.06-.706.744-1.485 1.474-1.732 1.623-.514.31-1.29.346-1.86.086zM33.834 154.292c-1.07-.402-1.546-1.177-1.47-2.389.04-.657.13-.945.435-1.388.935-1.358 2.584-1.62 3.73-.59 1.054.945 1.11 2.436.133 3.482-.81.867-1.939 1.22-2.828.885zm-5.024-9.21c-1.395-.752-1.924-2.402-1.413-4.41.449-1.759 1.42-3.206 4.108-6.124 3.721-4.037 4.071-6.105 1.455-8.58-1.703-1.611-3.629-2.231-5.948-1.916-1.556.212-3.13.704-4.626 1.446-1.148.57-1.413.77-2.374 1.807-1.017 1.097-1.421 1.71-3.085 4.673-.596 1.062-.96 1.315-1.904 1.32-1.792.01-2.536-1.621-1.704-3.74 1.064-2.71 3.283-5.82 5.098-7.142 1.727-1.26 5.001-2.55 7.684-3.03 2.196-.392 4.943-.044 6.852.87 1.19.568 2.657 1.647 3.68 2.704 2.27 2.348 3.117 5.292 2.375 8.257-.583 2.33-1.463 3.7-4.486 6.984-2.136 2.321-2.478 2.862-2.624 4.149-.19 1.679-.505 2.281-1.41 2.7-.637.297-1.167.307-1.678.032zm160-4.749c-1.259-.584-1.76-2.04-1.14-3.303.254-.517 1.136-1.269 1.687-1.438 1.18-.36 2.73.641 3.09 1.998.142.534.05 1.129-.274 1.766-.536 1.059-2.167 1.532-3.363.977zm.606-10.371c-.95-.703-1.154-1.632-.674-3.057.745-2.212 2.39-3.774 5.911-5.61 2.313-1.205 3.914-3.107 4.077-4.841.118-1.25-.556-2.97-1.547-3.953-1.369-1.358-3.88-1.669-5.781-.716-.62.31-1.393.915-3.494 2.733-1.121.97-1.552 1.122-2.322.82-.998-.388-1.364-1.516-.836-2.574.653-1.308 3.116-3.886 4.527-4.737 3.475-2.095 8.25-1.477 11.094 1.436 1.28 1.311 2.329 3.66 2.633 5.895.317 2.328-.692 4.84-2.849 7.09-1.018 1.063-1.772 1.587-3.924 2.724-2.292 1.212-2.996 1.794-3.564 2.947-.736 1.493-1.538 2.234-2.417 2.234-.169 0-.544-.176-.834-.391z"
			  style="fill:#543770;stroke-width:1"
			  transform="translate(-12.98 -34.838)"/>
	</g>
</svg>